<?xml version="1.0" encoding="UTF-8" standalone="no"?>
<svg
   xmlns:dc="http://purl.org/dc/elements/1.1/"
   xmlns:cc="http://creativecommons.org/ns#"
   xmlns:rdf="http://www.w3.org/1999/02/22-rdf-syntax-ns#"
   xmlns:svg="http://www.w3.org/2000/svg"
   xmlns="http://www.w3.org/2000/svg"
   viewBox="0 0 706.66669 618.66669"
   height="618.66669"
   width="706.66669"
   xml:space="preserve"
   id="svg2"
   version="1.1"><metadata
     id="metadata8"><rdf:RDF><cc:Work
         rdf:about=""><dc:format>image/svg+xml</dc:format><dc:type
           rdf:resource="http://purl.org/dc/dcmitype/StillImage" /></cc:Work></rdf:RDF></metadata><defs
     id="defs6" /><g
     transform="matrix(1.3333333,0,0,-1.3333333,0,618.66667)"
     id="g10"><g
       transform="scale(0.1)"
       id="g12"><path
         id="path14"
         style="fill:#006b89;fill-opacity:1;fill-rule:evenodd;stroke:none"
         d="m 2605.35,3746.05 28.2,-1.83 13.64,31.87 15.39,-30.23 27.81,-0.63 -24.14,-22.3 8.71,-26.21 -27.38,14.61 -25.39,-14.38 6.33,27 z" /><path
         id="path16"
         style="fill:#006b89;fill-opacity:1;fill-rule:evenodd;stroke:none"
         d="m 1416.09,1580.51 -19.88,39.69 15.43,40.58 c 0,0 4.02,47.07 -39.8,46.29 -43.83,-0.82 -34.11,-47.11 -34.11,-47.11 l 19.5,-38.94 -17.03,-37.35 H 14.6094 v 81.99 H 35.6992 V 2090.2 H 15 v 29.21 H 0 v 33.29 l 195.23,28.82 h 238.641 l 226.68,78.95 210.469,-80.78 h 258.12 l 198.48,-40.47 v -24.57 h -11.57 v -19.49 h 112.82 v 235.62 l -45.47,33.4 v 16.33 c 0,0 81.21,5.08 116.48,11.13 35.32,6.09 242.74,39.38 242.74,39.38 h 627.07 v 140.43 l -36.14,12.57 v 29.22 h 44.26 v 18.48 l -12.5,21.6 h 69.73 v 120.66 c 0,0 -11.56,-0.62 -12.38,9.14 -0.82,9.73 3.24,17.04 0,19.26 -3.25,2.27 -23.25,13.44 -23.25,13.44 v 19.65 h 27.7 v 16.64 c 0,0 -9.73,6.48 -10.35,14.61 -0.59,8.12 6.72,12.81 6.72,12.81 h 20.07 v 6.06 l -12.57,6.29 v 49.72 l 18.04,-14.18 11.8,10.55 v -47.7 c 0,0 -6.09,-13.39 5.86,-13.2 11.99,0.2 3.71,13.87 3.71,13.87 l -0.23,45.19 13.16,-10.15 16.06,15.43 v -46.88 l -12.19,-8.32 v -6.68 h 21.52 v 189.1 h -12.5 v 25.2 l -23.36,23.36 h 41.25 v 10.43 c 0,0 -14.84,-0.43 -16.87,5.27 -2.03,5.66 -3.83,16.45 1.83,18.05 5.67,1.64 20.9,-0.2 23.56,0 2.61,0.19 0,6.29 0,6.29 l -11.17,6.48 v 40 l 15.85,-9.14 8.91,5.9 v -44.45 c 0,0 -1.44,-5.47 5.47,-5.67 6.91,-0.23 5.27,6.49 5.27,6.49 v 43.2 l 11.17,-6.68 14.61,12.58 v -41.41 l -10.74,-7.69 c 0,0 -3.87,-6.29 1.21,-6.29 5.08,0 29.03,0.82 29.03,0.82 0,0 11.36,-4.89 5.66,-18.67 0,0 4.88,-8.56 12.19,-2.47 l -28.83,56.02 23.13,37.54 -15.63,22.93 12.81,18.87 -14.61,9.33 v 28.83 h 39.14 l 12.78,350.47 c -21.72,7.26 -50.39,18.01 -49.34,66.87 0,0 16.84,-47.69 58.87,-46.68 41.99,1.02 57.42,49.54 57.42,49.54 0,0 4.26,-53.79 -47.07,-69.22 l 4.06,-350.28 37.11,-0.62 c 0,0 9.77,-22.74 -10.12,-34.49 l 11.33,-17.46 -18.67,-30.43 24.77,-32.47 -25.55,-58.04 h 15.82 c 0,0 -10.16,16.25 0,20.31 10.16,4.02 30.43,1.99 30.43,1.99 0,0 -1.6,9.77 -8.52,10.16 l -2.85,35.74 13.4,-5.27 12.19,5.66 0.39,-43.44 c 0,0 2.85,-5.27 8.51,-1.6 l -0.39,44.22 11.37,-6.09 14.22,12.18 0.78,-40.97 c 0,0 -14.18,-5.28 -10.94,-7.74 3.25,-2.42 0.82,-3.63 12.97,-3.63 0,0 13.01,4.45 13.01,-9.76 0,-14.18 -10.16,-13.4 -19.88,-14.18 l 0.82,-12.19 36.09,-0.39 -18.24,-20.71 v -24.37 h -11.37 v -190.35 h 18.67 v 6.48 l -10.62,2.85 v 43.44 l 16.29,-10.55 10.15,10.12 v -52.15 h 12.39 v 52.78 l 10.93,-10.98 17.27,17.27 v -48.52 l -11.17,-11.13 h 28.01 v -25.98 h -12.39 v -19.1 h 30.67 v -17.42 l -21.72,-14.85 v -26.36 h -14.42 v -123.4 h 71.02 l -15.19,-18.87 v -19.88 h 49.1 v -30.43 l -35.51,-12.19 v -136.95 h 630.27 c 0,0 280.55,-53.64 356.21,-53.95 v -20.47 l -48.08,-32.15 v -229.88 h 112.69 v 14.92 h -10.7 v 27.62 l 205.86,39.61 248.05,-1.29 214.96,82.46 227.3,-81.83 h 240.9 l 189.65,-27.93 V 2120 h -11.53 v -27.62 h -21.28 v -425.19 h 20.15 V 1580.2 H 3958.48 l -23.56,40.82 22.66,39.29 c 0,0 -1.68,45.51 -37.42,45.51 -35.71,0 -42.86,-36.37 -38.28,-44.8 4.53,-8.44 15.58,-40.9 15.58,-40.9 l -18.87,-40.28 h -435.74 c 0,0 12.19,-18.32 7.66,-28.71 -4.57,-10.39 -18.52,-30.54 -40.59,-28.9 -22.11,1.6 -42.54,18.16 -45.47,34.1 0,0 2.27,14.26 -95.15,38.63 0,0 -38.28,11.02 -69.81,10.7 -31.48,-0.31 -66.21,6.84 -71.09,6.84 -4.88,0 -11.68,-6.52 1.6,-10.74 13.32,-4.22 61.37,-13.64 81.52,-28.56 20.12,-14.96 38.95,-18.82 40.28,-35.7 1.29,-16.91 -16.92,-30.55 -37.7,-28.59 -20.78,1.95 -22.07,3.9 -22.07,3.9 l -3.55,0.47 H 2091.8 c 0,0 -35.71,-10.39 -47.42,10.7 -11.68,21.14 2.26,30.2 13.32,37.04 11.05,6.79 58.43,29.88 79.21,35.7 20.79,5.86 33.79,6.48 33.13,11.05 -0.63,4.53 0.66,6.8 -7.46,5.51 -8.13,-1.29 -94.18,-7.77 -99.38,-8.75 -5.19,-0.98 -107.46,-24.37 -127.26,-39.3 -19.81,-14.92 -6.84,-26.28 -21.1,-32.14 -14.29,-5.86 -32.5,-14.93 -56.17,-2.58 -23.71,12.3 -18.83,30.82 -19.18,32.11 -0.35,1.33 10.74,17.89 10.74,17.89 z m 966.64,992.19 h 523.6 c 2.46,0 4.45,-2 4.45,-4.46 0,-2.46 -1.99,-4.45 -4.45,-4.45 h -523.6 c -2.46,0 -4.45,1.99 -4.45,4.45 0,2.46 1.99,4.46 4.45,4.46 z m -28.59,19.18 h 582.54 v -4.07 l -27.19,-6.99 h -532.93 l -22.42,6.91 z m 3.79,15.35 c 55.62,0 111.21,0 166.84,0 3.28,-0.35 4.88,1.25 4.68,5 v 162.5 h 227.89 c 0,-54.14 0,-108.28 0,-162.43 -0.11,-3.28 1.8,-4.8 5.16,-5.07 h 170.98 c 1.83,0 3.28,-1.49 3.28,-3.32 0,-1.8 -1.45,-3.29 -3.28,-3.29 h -575.55 c -1.84,0 -3.28,1.49 -3.28,3.29 0,1.83 1.44,3.32 3.28,3.32 z m 28.2,38.12 h 93.79 c 1.88,0 3.4,-1.52 3.4,-3.4 0,-1.87 -1.52,-3.4 -3.4,-3.4 h -93.79 c -1.87,0 -3.4,1.53 -3.4,3.4 0,1.88 1.53,3.4 3.4,3.4 z m 65.47,129.38 h 63.09 c 2.5,0 4.53,-2.03 4.53,-4.53 v -150.4 c 0,-2.5 -2.03,-4.53 -4.53,-4.53 h -24.81 v 17.15 l 11.14,14.81 c 1.52,1.99 -1.06,6.21 -3.52,6.21 -14.84,0 -29.73,0 -44.45,0 -4.65,0 -5.98,2.77 -5.98,6.72 v 110.04 c 0,2.5 2.03,4.53 4.53,4.53 z m -61.13,-144.18 h 84.41 c 2.35,0 4.26,-1.92 4.26,-4.26 v -9.14 c 0,-2.35 -1.91,-4.3 -4.26,-4.3 h -84.41 c -2.35,0 -4.26,1.95 -4.26,4.3 v 9.14 c 0,2.34 1.91,4.26 4.26,4.26 z m 415.94,14.8 h 93.79 c 1.87,0 3.39,-1.52 3.39,-3.4 0,-1.87 -1.52,-3.4 -3.39,-3.4 h -93.79 c -1.84,0 -3.4,1.53 -3.4,3.4 0,1.88 1.56,3.4 3.4,3.4 z m 4.33,-14.8 h 84.42 c 2.34,0 4.25,-1.92 4.25,-4.26 v -9.14 c 0,-2.35 -1.91,-4.3 -4.25,-4.3 h -84.42 c -2.34,0 -4.26,1.95 -4.26,4.3 v 9.14 c 0,2.34 1.92,4.26 4.26,4.26 z m 26.72,144.18 h -64.14 c -2.54,0 -4.61,-2.03 -4.61,-4.53 v -150.4 c 0,-2.5 2.07,-4.53 4.61,-4.53 h 25.2 v 17.15 l -11.29,14.81 c -1.53,1.99 1.05,6.21 3.59,6.21 15.04,0 30.23,0 45.16,0 4.76,0 6.09,2.77 6.09,6.72 v 110.04 c 0,2.5 -2.07,4.53 -4.61,4.53 z m -404.88,24.49 h 426.949 v -15.8203 H 2432.58 Z m -11.37,18.28 449.88,-0.23 -11.56,-10.36 h -426.95 z m 15.39,34.45 h 74.38 v -15.82 h -74.38 z m 340.94,0 h 71.5195 v -15.8203 H 2777.54 Z m -253.52,-8.9 h 241.18 c 2.1,0 3.82,-1.72 3.82,-3.87 v -4.06 c 0,-2.11 -1.72,-3.83 -3.82,-3.83 h -241.18 c -2.11,0 -3.82,1.72 -3.82,3.83 v 4.06 c 0,2.15 1.71,3.87 3.82,3.87 z m 245.12,28.59 h 91.13 c 2.35,0 4.26,-1.91 4.26,-4.26 v -4.37 c 0,-2.35 -1.91,-4.26 -4.26,-4.26 h -91.13 c -2.34,0 -4.26,1.91 -4.26,4.26 v 4.37 c 0,2.35 1.92,4.26 4.26,4.26 z m -339.73,0 h 91.14 c 2.34,0 4.25,-1.91 4.25,-4.26 v -4.37 c 0,-2.35 -1.91,-4.26 -4.25,-4.26 h -91.14 c -2.34,0 -4.25,1.91 -4.25,4.26 v 4.37 c 0,2.35 1.91,4.26 4.25,4.26 z m 93.17,196.76 h 242.69 c 2.03,0 3.68,-1.64 3.68,-3.63 v -186.02 h -5.47 c -4.38,0 -7.93,-3.59 -7.93,-7.97 v -8.12 c 0,-4.38 3.55,-7.93 7.93,-7.93 h 5.47 v -2.46 c 0,-2 -1.65,-3.64 -3.68,-3.64 h -242.69 c -2.03,0 -3.67,1.64 -3.67,3.64 v 2.46 h 6.87 c 4.38,0 7.93,3.55 7.93,7.93 v 8.12 c 0,4.38 -3.55,7.97 -7.93,7.97 h -6.87 v 186.02 c 0,1.99 1.64,3.63 3.67,3.63 z m -14.73,21.76 h 272.35 c 2.34,0 4.25,-1.92 4.25,-4.26 v -4.34 c 0,-2.34 -1.91,-4.29 -4.25,-4.29 h -272.35 c -2.34,0 -4.26,1.95 -4.26,4.29 v 4.34 c 0,2.34 1.92,4.26 4.26,4.26 z m 19.49,38.16 h 44.85 c 2.34,0 4.26,-1.91 4.26,-4.26 v -4.37 c 0,-2.35 -1.92,-4.26 -4.26,-4.26 h -44.85 c -2.34,0 -4.25,1.91 -4.25,4.26 v 4.37 c 0,2.35 1.91,4.26 4.25,4.26 z m 194.18,0 h 38.68 c 2.34,0 4.25,-1.91 4.25,-4.26 v -4.37 c 0,-2.35 -1.91,-4.26 -4.25,-4.26 h -38.68 c -2.34,0 -4.25,1.91 -4.25,4.26 v 4.37 c 0,2.35 1.91,4.26 4.25,4.26 z m -16.05,17.7 h 75.47 c 1.87,0 3.4,-1.53 3.4,-3.4 v -3.48 c 0,-1.87 -1.53,-3.4 -3.4,-3.4 h -75.47 c -1.88,0 -3.4,1.53 -3.4,3.4 v 3.48 c 0,1.87 1.52,3.4 3.4,3.4 z m -198.67,0 h 80.27 c 1.99,0 3.63,-1.64 3.63,-3.64 v -3.67 c 0,-1.99 -1.64,-3.63 -3.63,-3.63 h -80.27 c -2,0 -3.64,1.64 -3.64,3.63 v 3.67 c 0,2 1.64,3.64 3.64,3.64 z m 81.72,-24.11 h 119.49 c 1.37,0 2.54,-1.13 2.54,-2.53 v -2.62 c 0,-1.41 -1.17,-2.54 -2.54,-2.54 h -119.49 c -1.41,0 -2.54,1.13 -2.54,2.54 v 2.62 c 0,1.4 1.13,2.53 2.54,2.53 z m 8.16,173.87 h 96.56 c 1.88,0 3.4,-1.52 3.4,-3.4 v -3.47 c 0,-1.88 -1.52,-3.4 -3.4,-3.4 h -96.56 c -1.88,0 -3.4,1.52 -3.4,3.4 v 3.47 c 0,1.88 1.52,3.4 3.4,3.4 z m 2.73,-15.86 8.32,-7.54 h 75.51 l 8.13,7.93 z m 13.83,-13.2 -12.38,-15.43 h 87.46 l -13.01,14.8 z m -3.47,-34.73 4.68,-8.32 h 59.69 l 5.24,8.32 z m -8.91,12.5 5.9,-6.05 h 75.47 l 6.64,6.05 z m -7.89,-53.63 c 0,0 5.19,0 8.55,0 0.75,1.72 8.32,24.96 8.32,24.96 z m -1.21,-8.71 h 8.75 l 19.88,-51.76 h -2.85 z m 16.44,8.71 c 0,0 5.16,0 8.52,0 0.78,1.72 4.06,27.69 4.06,27.69 z m 18.05,0 c 0,0 5.2,0 8.55,0 0.75,1.72 -0.23,28.12 -0.23,28.12 z m 70.63,0 c 0,0 -5.16,0 -8.52,0 -0.74,1.72 -11.45,24.26 -11.45,24.26 z m -22.31,0 c 0,0 -5.19,0 -8.52,0 -0.78,1.72 -1.75,27.81 -1.75,27.81 z m -17.66,0 c 0,0 -5.19,0 -8.51,0 -0.78,1.72 2.22,27.3 2.22,27.3 z m -48.51,-8.71 h 8.75 l 12.15,-52.38 h -2.82 z m 17.85,0 h 8.75 l 4.06,-52.5 h -2.85 z m 71.09,0 h -8.75 l -19.88,-51.76 h 2.85 z m -19.61,0 h -11.44 l -9.53,-52.38 h 2.85 z m -20.39,0 h -8.71 l -4.45,-52.58 h 2.81 z M 1883.95,1581.8 c 15.39,0 27.81,-7.82 27.81,-17.46 0,-9.65 -12.42,-17.46 -27.81,-17.46 -15.36,0 -27.78,7.81 -27.78,17.46 0,9.64 12.42,17.46 27.78,17.46 z m 195.66,-23.95 c 13.55,0 24.57,-6.91 24.57,-15.43 0,-8.51 -11.02,-15.39 -24.57,-15.39 -13.56,0 -24.53,6.88 -24.53,15.39 0,8.52 10.97,15.43 24.53,15.43 z m 71.33,24.85 h 123.98 v -21.49 h -152.81 z m 26.25,9.64 h 124.84 v 16.45 h -85.86 z m 47.69,-41.99 v -28.44 h -118.51 c 0,0 8.51,6.53 8.51,13.83 0,7.31 -5.66,15.82 -5.66,15.82 h 115.66 z m 918.32,32.35 h -119.1 v -21.49 h 146.8 z m -25.23,9.64 h -119.88 v 16.45 h 82.46 z m -45.78,-41.99 v -28.44 h 113.83 c 0,0 -8.21,6.53 -8.21,13.83 0,7.31 5.47,15.82 5.47,15.82 h -111.09 z m 333.79,32.11 c 15.35,0 27.81,-7.81 27.81,-17.46 0,-9.65 -12.46,-17.46 -27.81,-17.46 -15.36,0 -27.82,7.81 -27.82,17.46 0,9.65 12.46,17.46 27.82,17.46 z m -193.6,-24.76 c 13.56,0 24.57,-6.92 24.57,-15.43 0,-8.52 -11.01,-15.43 -24.57,-15.43 -13.55,0 -24.57,6.91 -24.57,15.43 0,8.51 11.02,15.43 24.57,15.43 z m -899.61,50.93 h 638.402 v -16.25 H 2312.77 Z m -24.76,-26.79 h 706.867 v -19.8906 H 2288.01 Z m -48.28,-30.86 h 794.648 v -29.2188 H 2239.73 Z m 804.8,0 h 20.6992 v -29.2188 H 3044.53 Z m -39.8,30.86 h 12.3008 v -19.8906 H 3004.73 Z m -43.83,26.79 h 29.6523 v -16.25 H 2960.9 Z M 24.4102,1655.16 c 435.0778,0 870.1208,0 1305.1998,0 2.03,-11.8 15.59,-17.31 15.43,-28.44 H 24.4102 Z m 0,-37.78 H 1345.04 l -13.79,-26.68 H 24.4102 Z m 1396.6098,36.76 -11.33,-23.94 h 792.22 v 9.72 h 10.59 c 0,0 9.34,13.4 -2.03,13.4 -11.37,0 -789.45,0.82 -789.45,0.82 z m -13.4,-35.74 14.65,-28.01 439.96,-0.82 140,30.04 z m 1880.62,-0.2 132.11,-28.59 h 450.12 l 14.22,29.22 z m -210.23,35.32 v -13.4 h 15 v -13.4 h 791.44 l -11.33,26.4 z m 2191.72,1.21 H 3966.45 l -17.27,-28.01 h 1320.55 z m 0,-39.18 H 3949.18 l 13.83,-26.57 h 1306.72 z m -2347.39,746.33 h 963.95 l -33.48,-24.38 h -930.47 z m -553.2,-0.43 h -965.16 l 32.66,-23.52 h 932.5 z M 5267.27,2119.57 V 2102.3 H 4819.8 v 15.82 h -379.41 v -20.42 h -450.82 v 14.64 h 417.54 v 24.07 h 436.44 v -17.03 z m -3963.56,-4.92 v -17.23 H 856.211 v 20.7 h -379.41 v -15.5 H 26.0195 v 14.61 H 443.52 v 19.18 h 436.441 v -21.96 z M 48.1602,2090.55 h 424.262 V 1667.109 H 48.1602 Z m 436.0198,17.61 h 88.5195 V 1666.84 H 484.18 Z m 99.57,0 H 744.648 V 1666.84 H 583.75 Z m 174.141,0 h 83.0898 V 1666.84 H 757.891 Z m 97.539,-21.68 H 1222.5 V 1666.839 H 855.43 Z m 378.67,0.82 h 59.0195 V 1666.839 H 1234.1 Z m 70.78,-16.36 h 124.18 v -404.1 c -2.11,0 -4.22,0 -6.36,0 0.27,36.52 -28.68,52.46 -48.56,52.34 -26.84,-0.16 -50.55,-23.4 -50.19,-52.34 h -19.07 z m 2682.46,0 h -124.18 v -404.1 c 2.11,0 4.22,0 6.37,0 -0.27,36.52 28.67,52.46 48.56,52.34 26.83,-0.16 50.54,-23.4 50.19,-52.34 h 19.06 z m 1256.41,19.61 h -424.258 v -423.441 h 424.258 z m -436.02,17.61 h -88.4688 v -441.32 h 88.4688 z m -99.57,0 h -160.859 v -441.32 h 160.859 z m -174.1,0 h -83.0781 v -441.32 h 83.0781 z m -97.58,-21.68 h -367.031 v -419.641 h 367.031 z m -378.67,0.82 h -58.9766 v -420.461 h 58.9766 z m -2616.83,196.06 h 75.8984 V 1666.84 H 1440.98 Z m 0,35.16 h 75.8984 v -23.25 H 1440.98 Z m 87.81,8.51 H 2368.4 V 1960.7 c -53.36,0 -120.51,0.04 -152.15,0.04 -9.02,-7.54 -6.8,-26.91 5.31,-29.96 0,-20.62 0.78,-30.82 0.55,-47.38 -0.04,-1.45 -2.93,-0.12 -4.41,-0.12 -7.54,1.25 -10.51,-1.09 -10.86,-5.58 0.04,-12.93 0.07,-25.86 0.11,-38.75 0.39,-6.49 1.92,-8.25 6.68,-8.25 l -1.21,-166.56 h -683.63 z m 2232.69,0 h -839.6 V 1960.7 c 53.35,0 126.64,0.04 158.28,0.04 9.02,-7.54 6.79,-26.91 -5.32,-29.96 0,-20.62 -0.78,-30.82 -0.54,-47.38 0.04,-1.45 2.93,-0.12 4.41,-0.12 7.54,1.25 10.55,-1.09 10.86,-5.58 -0.04,-12.93 -0.08,-25.86 -0.12,-38.75 -0.39,-6.49 -5.62,-8.25 -10.35,-8.25 l 1.21,-166.56 h 681.17 z m 89.18,-43.67 h -75.8906 v -616.52 h 75.8906 z m 0,35.16 h -75.8906 v -23.25 h 75.8906 z m -1469.61,237.3 h 112.859 V 1993.711 H 2381.05 Z m 124.61,0 h 272.781 V 1993.711 H 2505.66 Z m 286.57,0 h 115.27 v -562.109 h -115.27 z m -533.64,-922.23 c 0,0 13.6,1.61 15.04,-2.46 1.41,-4.02 3.44,-13.59 -4.06,-13.59 -7.5,0 -62.11,0 -62.11,0 0,0 -2.42,6.91 2.42,11.8 4.89,4.84 7.93,2.22 9.57,6.09 1.6,3.83 2.43,10.55 2.43,10.55 v 184.88 h 37.34 z m -37.34,217.35 h 42.62 c 4.14,0 7.54,-3.4 7.54,-7.5 0,-4.14 -3.4,-7.54 -7.54,-7.54 h -42.62 c -4.1,0 -7.5,3.4 -7.5,7.54 0,4.1 3.4,7.5 7.5,7.5 z m 167.66,0 h 42.61 c 4.1,0 7.5,-3.4 7.5,-7.5 0,-4.14 -3.4,-7.54 -7.5,-7.54 h -42.61 c -4.14,0 -7.54,3.4 -7.54,7.54 0,4.1 3.4,7.5 7.54,7.5 z m -1.02,-217.97 h 3.05 v 192.5 c 0,2.19 1.76,3.94 3.94,3.94 h 28.6 c 2.18,0 3.98,-1.75 3.98,-3.94 v -192.5 h 5.08 c 4.1,0 7.5,-3.36 7.5,-7.5 0,-4.14 -3.4,-7.5 -7.5,-7.5 h -44.65 c -4.14,0 -7.54,3.36 -7.54,7.5 0,4.14 3.4,7.5 7.54,7.5 z m 152.38,217.97 h 48.71 c 4.14,0 7.5,-3.4 7.5,-7.5 0,-4.14 -3.36,-7.54 -7.5,-7.54 h -48.71 c -4.14,0 -7.5,3.4 -7.5,7.54 0,4.1 3.36,7.5 7.5,7.5 z m -1.05,-217.97 h 9.18 v 192.5 c 0,2.19 1.8,3.94 3.94,3.94 h 28.64 c 2.18,0 3.94,-1.75 3.94,-3.94 v -192.5 h 5.08 c 4.14,0 7.5,-3.36 7.5,-7.5 0,-4.14 -3.36,-7.5 -7.5,-7.5 h -50.78 c -4.14,0 -7.5,3.36 -7.5,7.5 0,4.14 3.36,7.5 7.5,7.5 z m 158.55,217.97 h 49.5 c 4.14,0 7.53,-3.4 7.53,-7.5 0,-4.14 -3.39,-7.54 -7.53,-7.54 h -49.5 c -4.14,0 -7.54,3.4 -7.54,7.54 0,4.1 3.4,7.5 7.54,7.5 z m -1.48,-217.97 h 10.39 v 192.5 c 0,2.19 1.8,3.94 3.98,3.94 h 28.6 c 2.19,0 3.94,-1.75 3.94,-3.94 v -192.5 h 5.08 c 4.14,0 7.54,-3.36 7.54,-7.5 0,-4.1 -3.4,-7.5 -7.54,-7.5 h -51.99 c -4.14,0 -7.5,3.36 -7.5,7.5 0,4.14 3.36,7.5 7.5,7.5 z m 169.1,217.97 h 42.62 c 4.14,0 7.5,-3.4 7.5,-7.5 0,-4.14 -3.36,-7.54 -7.5,-7.54 h -42.62 c -4.14,0 -7.5,3.4 -7.5,7.54 0,4.1 3.36,7.5 7.5,7.5 z m -1.01,-217.97 h 3.04 v 192.5 c 0,2.19 1.76,3.94 3.95,3.94 H 2900 c 2.15,0 3.95,-1.75 3.95,-3.94 v -192.5 h 5.07 c 4.14,0 7.5,-3.36 7.5,-7.5 0,-4.14 -3.36,-7.5 -7.5,-7.5 h -44.64 c -4.15,0 -7.5,3.36 -7.5,7.5 0,4.14 3.35,7.5 7.5,7.5 z m 166.6,217.97 h 42.61 c 4.14,0 7.5,-3.4 7.5,-7.5 0,-4.14 -3.36,-7.54 -7.5,-7.54 h -42.61 c -4.14,0 -7.5,3.4 -7.5,7.54 0,4.1 3.36,7.5 7.5,7.5 z m -1.02,-217.97 h 3.05 v 192.5 c 0,2.19 1.79,3.94 3.94,3.94 h 28.64 c 2.18,0 3.94,-1.75 3.94,-3.94 v -192.5 h 8.75 c 4.14,0 7.54,-3.36 7.54,-7.5 0,-4.14 -3.4,-7.5 -7.54,-7.5 h -48.32 c -4.1,0 -7.5,3.36 -7.5,7.5 0,4.14 3.4,7.5 7.5,7.5 z m -810.82,230.74 h 859.41 c 1.65,0 2.97,-1.33 2.97,-2.93 v -0.43 c 0,-1.6 -1.32,-2.93 -2.97,-2.93 h -859.41 c -1.64,0 -2.97,1.33 -2.97,2.93 v 0.43 c 0,1.6 1.33,2.93 2.97,2.93 z m 1.8,12.89 h 174.26 c 1.71,0 3.12,-1.4 3.12,-3.16 0,-1.72 -1.41,-3.13 -3.12,-3.13 h -174.26 c -1.72,0 -3.13,1.41 -3.13,3.13 0,1.76 1.41,3.16 3.13,3.16 z m 13.51,56.21 h 161.14 c 1.91,0 3.43,-1.56 3.43,-3.43 v -41.8 c 0,-1.92 -1.52,-3.48 -3.43,-3.48 h -161.14 c -1.87,0 -3.43,1.56 -3.43,3.48 v 41.8 c 0,1.87 1.56,3.43 3.43,3.43 z m -9.65,19.38 h 168.99 c 3.16,0 5.78,-2.58 5.78,-5.78 0,-3.17 -2.62,-5.79 -5.78,-5.79 H 2224.8 c -3.16,0 -5.74,2.62 -5.74,5.79 0,3.2 2.58,5.78 5.74,5.78 z m 848.44,-75.59 h -180.51 c -1.75,0 -3.16,-1.4 -3.16,-3.16 0,-1.72 1.41,-3.13 3.16,-3.13 h 180.51 c 1.72,0 3.17,1.41 3.17,3.13 0,1.76 -1.45,3.16 -3.17,3.16 z m -15.7,56.21 H 2892.3 c -1.91,0 -3.43,-1.56 -3.43,-3.43 v -41.8 c 0,-1.92 1.52,-3.48 3.43,-3.48 h 165.24 c 1.91,0 3.48,1.56 3.48,3.48 v 41.8 c 0,1.87 -1.57,3.43 -3.48,3.43 z m 12.3,19.38 H 2894.1 c -3.16,0 -5.78,-2.58 -5.78,-5.78 0,-3.17 2.62,-5.79 5.78,-5.79 h 175.74 c 3.21,0 5.78,2.62 5.78,5.79 0,3.2 -2.57,5.78 -5.78,5.78 z m -656.09,13.9 h 457.3 c 3.6,0 6.57,-2.97 6.57,-6.6 v -80.08 c 0,-3.67 -2.97,-6.64 -6.57,-6.64 h -457.3 c -3.63,0 -6.6,2.97 -6.6,6.64 v 80.08 c 0,3.63 2.97,6.6 6.6,6.6 z m 17.15,-13.51 h 421.4 c 2.78,0 5.04,-2.27 5.04,-5.04 v -60.82 c 0,-2.74 -2.26,-5 -5.04,-5 h -421.4 c -2.78,0 -5,2.26 -5,5 v 60.82 c 0,2.77 2.22,5.04 5,5.04 z m 9.69,-11.6 h 401.21 c 1.83,0 3.36,-1.53 3.36,-3.36 v -40.94 c 0,-1.84 -1.53,-3.36 -3.36,-3.36 h -401.21 c -1.84,0 -3.32,1.52 -3.32,3.36 v 40.94 c 0,1.83 1.48,3.36 3.32,3.36 z m -57.5,44.49 h 524.33 c 1.02,0 1.84,-0.82 1.84,-1.8 v -21.83 c 0,-0.98 -0.82,-1.8 -1.84,-1.8 -6.09,0 -8.55,0 -14.69,0 -3.63,-0.39 -5.11,0.47 -4.96,3.16 0,2.31 0,4.61 0,6.92 0.55,4.72 -1.91,6.29 -5.97,6.17 -159.14,0.12 -318.25,0.27 -477.39,0.39 -4.8,0.12 -6.99,-2.54 -6.95,-7.54 0.16,-5.23 -0.55,-9.57 -5.82,-9.1 h -8.55 c -1.02,0 -1.8,0.82 -1.8,1.8 v 21.83 c 0,0.98 0.78,1.8 1.8,1.8 z" /><path
         id="path18"
         style="fill:#006b89;fill-opacity:1;fill-rule:evenodd;stroke:none"
         d="m 1005.2,2217.66 h 118.51 c 0,0 -17.85,170.46 -9.76,266.25 8.12,95.78 21.13,266.25 69.84,394.49 48.67,128.24 92.54,266.25 224.02,441.6 131.53,175.31 316.6,326.33 402.62,379.88 86.05,53.6 227.3,141.25 428.59,193.21 201.33,51.95 314.96,63.32 519.53,53.55 204.57,-9.73 384.77,-66.56 488.68,-113.63 103.9,-47.07 256.52,-102.27 441.6,-274.38 185.08,-172.07 301.95,-321.44 407.5,-582.81 105.51,-261.41 105.51,-451.33 107.15,-501.68 1.6,-50.31 0.39,-199.26 -11.8,-251.21 l 104.73,-2.46 c 0,0 15.43,151.8 12.97,237.03 -2.43,85.23 -21.1,234.61 -29.22,280.86 -8.09,46.29 -56.8,218.36 -77.93,275.19 -21.1,56.84 -102.27,237.04 -206.18,381.53 -103.9,144.49 -264.6,306.83 -430.23,413.98 -165.59,107.15 -332.81,172.11 -475.66,212.7 -142.86,40.58 -345.82,68.16 -508.17,58.44 -162.34,-9.77 -352.3,-35.75 -623.4,-147.74 -271.13,-112.03 -493.55,-332.81 -594.21,-459.45 -100.67,-126.64 -207.82,-293.87 -292.23,-543.87 -84.42,-250.04 -92.541,-464.34 -66.95,-711.48 z" /><path
         id="path20"
         style="fill:#006b89;fill-opacity:1;fill-rule:evenodd;stroke:none"
         d="m 772.23,2287.46 c 0,0 -22.742,47.07 1.598,125.82 0,0 17.891,10.55 -176.949,1.6 0,0 -38.168,277.62 98.242,686.76 l 178.551,-58.44 c 0,0 139.648,435.08 334.448,587.7 l -150.19,134.72 c 0,0 216.76,271.96 515.47,453.79 l 95.78,-167.22 c 0,0 431.87,212.65 625.04,240.27 l -17.85,185.08 c 0,0 288.98,76.29 709.45,3.24 l -40.59,-188.32 c 0,0 313.36,-37.34 618.56,-215.94 0,0 71.44,152.62 89.3,165.63 0,0 300.35,-167.23 522.77,-430.24 L 4020,3667.42 c 0,0 254.88,-308.47 326.33,-573.08 l 25.97,-21.14 c 0,0 170.47,68.21 198.05,56.84 0,0 122.58,-333.63 103.09,-694.02 0,0 -80.35,-20.32 -114.46,-18.68 -34.06,1.61 -69.8,-1.64 -69.8,-1.64 0,0 -9.73,-108.75 -17.85,-129.88 0,0 60.08,11.37 79.57,22.73 19.45,11.37 51.95,30.86 51.95,30.86 l 82.77,-40.58 102.31,1.6 c 0,0 53.55,513.05 -160.74,1013.09 l -194.03,-80.4 c 0,0 -113.63,250.04 -237.03,412.39 l 171.29,127.42 c 0,0 -365.27,454.61 -764.65,633.16 l -94.18,-155.86 c 0,0 -198.04,94.18 -409.1,146.14 0,0 8.91,72.22 18.67,90.11 9.73,17.86 27.58,89.26 27.58,89.26 0,0 -482.15,147.74 -1048.75,-4.84 0,0 42.19,-167.23 40.59,-178.6 -1.64,-11.36 -227.31,-53.59 -394.53,-155.85 0,0 -17.85,-9.73 -29.22,6.48 -11.37,16.25 -64.92,163.98 -64.92,163.98 0,0 -498.44,-245.15 -793.91,-686.71 l 156.68,-96.61 -220.821,-412.38 -163.949,64.96 c 0,0 -206.75,-361.6 -152.609,-985.47 l 114.449,-4.88 68.98,53.59 z" /><path
         id="path22"
         style="fill:#006b89;fill-opacity:1;fill-rule:evenodd;stroke:none"
         d="M 766.52,194.648 H 2039.34 L 1946.8,9.96094 H 3326.33 L 3225.27,192.621 h 1283.4 L 4222.11,900.43 c 0,0 -72.23,12.191 -75.51,14.609 -3.24,2.461 -101.44,80.781 -101.44,80.781 l 45.04,38.56 111.64,-92.11 c 0,0 166.4,191.95 203.71,247.14 37.34,55.2 142.89,220.82 155.86,245.16 13,24.34 55.19,102.27 55.19,102.27 l -131.48,2.46 c 0,0 -101.88,-176.18 -118.91,-200.51 -17.07,-24.38 -139.65,-201.33 -171.29,-212.7 l -113.63,93.36 c 0,0 -161.13,-153 -183.87,-165.19 -22.73,-12.15 -64.14,-8.91 -72.26,-8.13 -8.09,0.82 -287.35,-0.78 -287.35,-0.78 0,0 180.2,131.49 229.73,186.68 49.53,55.2 207.81,226.49 241.91,299.53 l -120.97,4.06 c 0,0 -89.69,-119.72 -142.46,-171.67 -52.74,-51.96 -169.65,-165.59 -246.76,-212.66 -77.11,-47.11 -176.96,-104.73 -176.96,-104.73 l -594.6,-0.39 -90.51,-84.022 -88.48,86.832 -631.13,-2.42 c 0,0 -110.39,59.26 -186.72,114.46 -76.29,55.19 -172.07,126.64 -258.13,225.66 -86.05,99.02 -120.15,149.37 -120.15,149.37 l -139.18,-1.25 c 0,0 98.2,-158.28 187.5,-244.29 89.3,-86.06 215.94,-206.21 282.5,-240.31 l -275.2,-3.25 c 0,0 -25.97,-4.84 -58.43,20.32 -32.47,25.15 -168.87,152.61 -168.87,152.61 l -113.63,-93.36 c 0,0 -52.78,43.83 -112.04,129.07 -59.25,85.23 -154.21,229.72 -172.07,280.03 l -138,2.47 c 0,0 90.11,-182.66 145.309,-254.11 55.191,-71.4 246.761,-332.808 272.731,-339.289 0,0 95.78,84.409 108.79,87.649 12.97,3.25 55.2,-48.711 55.2,-48.711 0,0 -93.36,-55.969 -113.64,-61.68 -20.31,-5.66 -70.62,-18.668 -70.62,-18.668 z m 654.65,834.652 -199.06,-543.64 1301.41,5.082 -78.75,-161.133 424.14,1.012 -77.5,159.5 1275.86,3.859 -193.21,529.65 c 0,0 -4.26,4.46 -12.77,6.1 -8.52,1.6 -1124.88,1.01 -1124.88,1.01 l -99.22,-91.33 -97.42,89.69 z m -167.54,-58.128 c -7.73,-8.512 -14.61,-26.793 -18.28,-35.742 -3.63,-8.91 -200.08,-566.989 -200.08,-566.989 l 1307.74,-8.91 -81.99,-155.039 776.01,1.598 -56.01,153.441 1282.77,3.051 -233.79,612.848 -98.63,50.74 -38.95,-0.82 201.1,-550.549 -1275.43,-1.012 80.35,-161.559 -483.79,-0.781 81.56,163.16 -1300.82,-6.41 206.52,559.301 -59.68,-0.2 c 0,0 -50.51,-45.89 -88.6,-56.128 z M 1223.2,958.98 c 0,0 -84.45,-32.46 -90.11,-45.46 C 1127.38,900.551 887.109,274.691 887.109,274.691 H 2176.17 L 2071.91,94.0586 h 1101.1 L 3091.84,272.23 h 1297.14 l -255.7,630.739 c 0,0 -67.38,52.34 -78.75,60.472 l 230.16,-618.949 h -1279.3 l 53.95,-156.25 h -826.33 l 79.53,154.219 -1301.21,8.519 z" /><path
         id="path24"
         style="fill:#006b89;fill-opacity:1;fill-rule:evenodd;stroke:none"
         d="M 1841.25,862.699 V 602.93 l 127.46,-3.239 -0.82,116.09 222.42,-0.82 2.42,-114.449 124.22,0.82 -0.82,263.789 -129.88,-2.422 v -98.211 h -216.76 v 99.852 z" /><path
         id="path26"
         style="fill:#006b89;fill-opacity:1;fill-rule:evenodd;stroke:none"
         d="m 2582.38,600.512 h 129.063 v 265.43 H 2582.38 Z" /><path
         id="path28"
         style="fill:#006b89;fill-opacity:1;fill-rule:evenodd;stroke:none"
         d="m 2930.62,863.52 h 473.25 V 819.691 H 3231.76 V 601.332 H 3102.7 v 218.359 h -172.08 z" /><path
         id="path30"
         style="fill:#006b89;fill-opacity:1;fill-rule:evenodd;stroke:none"
         d="m 2937.38,1300.16 c 0,23.08 3.48,41.75 10.43,55.86 7.03,14.18 17.39,25.03 31.17,32.65 13.72,7.58 31.06,11.37 51.92,11.37 15.39,0 28.9,-2.07 40.62,-6.33 11.64,-4.22 21.29,-10.31 28.75,-18.28 7.5,-7.93 13.4,-17.62 17.7,-29.06 4.33,-11.41 6.48,-26.88 6.48,-46.21 0,-22.93 -3.47,-41.53 -10.39,-55.63 -6.87,-14.18 -17.26,-25.04 -31.05,-32.69 -13.71,-7.66 -31.1,-11.49 -52.11,-11.49 -27.62,0 -49.38,6.72 -65.16,20.12 -18.94,16.41 -28.36,42.93 -28.36,79.69 z m 36.14,-0.08 c 0,-32.19 5.46,-53.6 16.52,-64.14 11.01,-10.63 24.69,-15.9 40.86,-15.9 16.21,0 29.84,5.31 40.9,15.94 11.01,10.62 16.52,31.99 16.52,64.1 0,32.19 -5.51,53.59 -16.52,64.14 -10.98,10.58 -24.77,15.9 -41.29,15.9 -16.21,0 -29.18,-4.69 -38.87,-14.03 -12.11,-11.87 -18.12,-33.94 -18.12,-66.01 z" /><path
         id="path32"
         style="fill:#006b89;fill-opacity:1;fill-rule:evenodd;stroke:none"
         d="m 2853.09,1230.27 v -22.97 h -182.43 c -0.43,8.68 5.24,38.21 19.03,51.45 10.43,9.96 16.48,13.67 38.08,24.84 33.64,17.39 59.53,23.52 71.49,33.68 11.99,10.23 18.01,19.84 18.01,28.98 0,9.49 -5.43,17.5 -16.29,24.06 -10.86,6.53 -25.04,9.81 -42.46,9.81 -18.44,0 -28.21,-5.47 -35.71,-15.32 -7.07,-9.29 -9.26,-16.4 -9.41,-28.67 h -34.14 c 2.65,18.4 7.15,34.49 18.04,44.53 14.73,13.56 32.5,19.38 62.08,19.38 29.8,0 53.47,-5.2 70.82,-15.63 17.42,-10.39 26.13,-23.36 26.13,-38.71 0,-7.85 -2.54,-15.54 -7.7,-23.08 -5.04,-7.62 -13.47,-15.63 -25.31,-23.95 -11.84,-8.36 -31.44,-16.25 -58.79,-30.74 -27.93,-14.81 -40.7,-13.79 -53.51,-36.45 z" /><path
         id="path34"
         style="fill:#006b89;fill-opacity:1;fill-rule:evenodd;stroke:none"
         d="m 2416.91,1251.45 h 30.59 c 2.62,-10.86 8.83,-19.22 16.17,-24.11 7.35,-4.84 16.76,-7.3 28.32,-7.3 9.85,0 18.44,1.68 25.94,5.08 7.46,3.4 13.52,7.89 18.2,13.59 4.69,5.63 8.64,13.28 11.84,22.89 3.24,9.61 4.8,19.38 4.8,29.38 0,1.01 -0.04,2.65 -0.19,4.8 -6.37,-7.66 -15.12,-13.87 -26.17,-18.63 -11.06,-4.77 -23.09,-7.15 -35.94,-7.15 -21.56,0 -39.81,5.9 -54.73,17.66 -14.88,11.68 -22.34,27.14 -22.34,46.36 0,19.85 7.77,35.78 23.36,47.89 15.54,12.07 35.04,18.13 58.55,18.13 16.88,0 32.39,-3.4 46.49,-10.27 14.02,-6.84 24.65,-16.57 31.91,-29.3 7.31,-12.66 10.94,-30.98 10.94,-55 0,-24.96 -3.56,-44.88 -10.78,-59.69 -7.23,-14.84 -18.05,-26.05 -32.35,-33.83 -14.25,-7.73 -30.97,-11.6 -50.15,-11.6 -20.39,0 -37.07,4.22 -50,12.77 -12.85,8.48 -21.88,22.93 -24.46,38.33 z m 132.04,83.82 c 0,13.75 -4.85,24.65 -14.57,32.74 -9.65,8.04 -21.45,12.11 -35.28,12.11 -14.33,0 -26.76,-4.34 -37.19,-13.05 -10.5,-8.67 -15.74,-19.96 -15.74,-33.83 0,-12.42 5,-22.54 14.88,-30.27 9.97,-7.77 22.35,-11.64 37.11,-11.64 14.85,0 27,3.87 36.53,11.64 9.53,7.73 14.26,18.55 14.26,32.3 z" /><path
         id="path36"
         style="fill:#006b89;fill-opacity:1;fill-rule:evenodd;stroke:none"
         d="m 2262.81,1203.63 h -35.97 l -2.66,145.16 c -17.97,-7.23 -34.61,-8.44 -58.95,-8.48 v 23.24 c 19.34,-0.39 33.99,1.02 47.27,9.18 8.55,5.28 14.22,14.5 23.67,27.31 h 26.64 z" /><path
         id="path38"
         style="fill:#006b89;fill-opacity:1;fill-rule:evenodd;stroke:none"
         d="m 115.352,2005.47 h 51.168 v 76.293 h -51.168 z" /><path
         id="path40"
         style="fill:#006b89;fill-opacity:1;fill-rule:evenodd;stroke:none"
         d="m 185.98,2005.47 h 51.168 v 76.293 H 185.98 Z" /><path
         id="path42"
         style="fill:#006b89;fill-opacity:1;fill-rule:evenodd;stroke:none"
         d="m 263.91,2005.47 h 51.168 v 76.293 H 263.91 Z" /><path
         id="path44"
         style="fill:#006b89;fill-opacity:1;fill-rule:evenodd;stroke:none"
         d="m 334.531,2005.47 h 51.1289 v 76.293 H 334.531 Z" /><path
         id="path46"
         style="fill:#006b89;fill-opacity:1;fill-rule:evenodd;stroke:none"
         d="m 403.949,2005.47 h 51.1289 v 76.293 H 403.949 Z" /><path
         id="path48"
         style="fill:#006b89;fill-opacity:1;fill-rule:evenodd;stroke:none"
         d="m 115.352,1891.83 h 51.168 v 76.2891 h -51.168 z" /><path
         id="path50"
         style="fill:#006b89;fill-opacity:1;fill-rule:evenodd;stroke:none"
         d="m 185.98,1891.83 h 51.168 v 76.2891 H 185.98 Z" /><path
         id="path52"
         style="fill:#006b89;fill-opacity:1;fill-rule:evenodd;stroke:none"
         d="m 263.91,1891.83 h 51.168 v 76.2891 H 263.91 Z" /><path
         id="path54"
         style="fill:#006b89;fill-opacity:1;fill-rule:evenodd;stroke:none"
         d="m 334.531,1891.83 h 51.1289 v 76.2891 H 334.531 Z" /><path
         id="path56"
         style="fill:#006b89;fill-opacity:1;fill-rule:evenodd;stroke:none"
         d="m 403.949,1891.83 h 51.1289 v 76.2891 H 403.949 Z" /><path
         id="path58"
         style="fill:#006b89;fill-opacity:1;fill-rule:evenodd;stroke:none"
         d="m 115.352,1789.57 h 51.168 v 76.2891 h -51.168 z" /><path
         id="path60"
         style="fill:#006b89;fill-opacity:1;fill-rule:evenodd;stroke:none"
         d="m 185.98,1789.57 h 51.168 v 76.2891 H 185.98 Z" /><path
         id="path62"
         style="fill:#006b89;fill-opacity:1;fill-rule:evenodd;stroke:none"
         d="m 263.91,1789.57 h 51.168 v 76.2891 H 263.91 Z" /><path
         id="path64"
         style="fill:#006b89;fill-opacity:1;fill-rule:evenodd;stroke:none"
         d="m 334.531,1789.57 h 51.1289 v 76.2891 H 334.531 Z" /><path
         id="path66"
         style="fill:#006b89;fill-opacity:1;fill-rule:evenodd;stroke:none"
         d="m 403.949,1789.57 h 51.1289 v 76.2891 H 403.949 Z" /><path
         id="path68"
         style="fill:#006b89;fill-opacity:1;fill-rule:evenodd;stroke:none"
         d="m 115.352,1685.66 h 51.168 v 76.2891 h -51.168 z" /><path
         id="path70"
         style="fill:#006b89;fill-opacity:1;fill-rule:evenodd;stroke:none"
         d="m 185.98,1685.66 h 51.168 v 76.2891 H 185.98 Z" /><path
         id="path72"
         style="fill:#006b89;fill-opacity:1;fill-rule:evenodd;stroke:none"
         d="m 263.91,1685.66 h 51.168 v 76.2891 H 263.91 Z" /><path
         id="path74"
         style="fill:#006b89;fill-opacity:1;fill-rule:evenodd;stroke:none"
         d="m 334.531,1685.66 h 51.1289 v 76.2891 H 334.531 Z" /><path
         id="path76"
         style="fill:#006b89;fill-opacity:1;fill-rule:evenodd;stroke:none"
         d="m 403.949,1685.66 h 51.1289 v 76.2891 H 403.949 Z" /><path
         id="path78"
         style="fill:#006b89;fill-opacity:1;fill-rule:evenodd;stroke:none"
         d="m 497.699,2005.47 h 51.1289 v 76.293 H 497.699 Z" /><path
         id="path80"
         style="fill:#006b89;fill-opacity:1;fill-rule:evenodd;stroke:none"
         d="m 500.16,1891.83 h 51.1289 v 76.2891 H 500.16 Z" /><path
         id="path82"
         style="fill:#006b89;fill-opacity:1;fill-rule:evenodd;stroke:none"
         d="m 501.371,1789.57 h 51.168 v 76.2891 h -51.168 z" /><path
         id="path84"
         style="fill:#006b89;fill-opacity:1;fill-rule:evenodd;stroke:none"
         d="m 501.371,1685.66 h 51.168 v 76.2891 h -51.168 z" /><path
         id="path86"
         style="fill:#006b89;fill-opacity:1;fill-rule:evenodd;stroke:none"
         d="m 600,2005.47 h 51.1289 v 76.293 H 600 Z" /><path
         id="path88"
         style="fill:#006b89;fill-opacity:1;fill-rule:evenodd;stroke:none"
         d="m 601.211,1891.83 h 51.1289 v 76.2891 H 601.211 Z" /><path
         id="path90"
         style="fill:#006b89;fill-opacity:1;fill-rule:evenodd;stroke:none"
         d="m 603.672,1789.57 h 51.1289 v 76.2891 H 603.672 Z" /><path
         id="path92"
         style="fill:#006b89;fill-opacity:1;fill-rule:evenodd;stroke:none"
         d="m 604.879,1685.66 h 51.1328 v 76.2891 H 604.879 Z" /><path
         id="path94"
         style="fill:#006b89;fill-opacity:1;fill-rule:evenodd;stroke:none"
         d="m 675.078,2005.47 h 51.1328 v 76.293 H 675.078 Z" /><path
         id="path96"
         style="fill:#006b89;fill-opacity:1;fill-rule:evenodd;stroke:none"
         d="m 676.289,1891.83 h 51.1328 v 76.2891 H 676.289 Z" /><path
         id="path98"
         style="fill:#006b89;fill-opacity:1;fill-rule:evenodd;stroke:none"
         d="m 678.75,1789.57 h 51.1289 v 76.2891 H 678.75 Z" /><path
         id="path100"
         style="fill:#006b89;fill-opacity:1;fill-rule:evenodd;stroke:none"
         d="m 677.5,1685.66 h 51.1719 v 76.2891 H 677.5 Z" /><path
         id="path102"
         style="fill:#006b89;fill-opacity:1;fill-rule:evenodd;stroke:none"
         d="m 770.43,2005.47 h 51.1719 v 76.293 H 770.43 Z" /><path
         id="path104"
         style="fill:#006b89;fill-opacity:1;fill-rule:evenodd;stroke:none"
         d="m 772.891,1894.26 h 51.168 v 76.3281 h -51.168 z" /><path
         id="path106"
         style="fill:#006b89;fill-opacity:1;fill-rule:evenodd;stroke:none"
         d="m 775.738,1780.62 h 51.1328 v 76.2891 H 775.738 Z" /><path
         id="path108"
         style="fill:#006b89;fill-opacity:1;fill-rule:evenodd;stroke:none"
         d="m 775.352,1681.99 h 51.1289 v 76.293 H 775.352 Z" /><path
         id="path110"
         style="fill:#006b89;fill-opacity:1;fill-rule:evenodd;stroke:none"
         d="m 862.969,2002.23 h 51.1719 v 76.2891 H 862.969 Z" /><path
         id="path112"
         style="fill:#006b89;fill-opacity:1;fill-rule:evenodd;stroke:none"
         d="m 862.969,1888.55 h 51.1719 v 76.3281 H 862.969 Z" /><path
         id="path114"
         style="fill:#006b89;fill-opacity:1;fill-rule:evenodd;stroke:none"
         d="m 862.969,1786.33 h 51.1719 v 76.293 H 862.969 Z" /><path
         id="path116"
         style="fill:#006b89;fill-opacity:1;fill-rule:evenodd;stroke:none"
         d="m 862.969,1682.42 h 51.1719 v 76.2891 H 862.969 Z" /><path
         id="path118"
         style="fill:#006b89;fill-opacity:1;fill-rule:evenodd;stroke:none"
         d="m 930.781,2002.23 h 51.1289 v 76.2891 H 930.781 Z" /><path
         id="path120"
         style="fill:#006b89;fill-opacity:1;fill-rule:evenodd;stroke:none"
         d="m 930.781,1888.55 h 51.1289 v 76.3281 H 930.781 Z" /><path
         id="path122"
         style="fill:#006b89;fill-opacity:1;fill-rule:evenodd;stroke:none"
         d="m 930.781,1786.33 h 51.1289 v 76.293 H 930.781 Z" /><path
         id="path124"
         style="fill:#006b89;fill-opacity:1;fill-rule:evenodd;stroke:none"
         d="m 930.781,1682.42 h 51.1289 v 76.2891 H 930.781 Z" /><path
         id="path126"
         style="fill:#006b89;fill-opacity:1;fill-rule:evenodd;stroke:none"
         d="m 1011.13,2002.23 h 51.1328 v 76.2891 H 1011.13 Z" /><path
         id="path128"
         style="fill:#006b89;fill-opacity:1;fill-rule:evenodd;stroke:none"
         d="m 1011.13,1888.55 h 51.1328 v 76.3281 H 1011.13 Z" /><path
         id="path130"
         style="fill:#006b89;fill-opacity:1;fill-rule:evenodd;stroke:none"
         d="m 1011.13,1786.33 h 51.1328 v 76.293 H 1011.13 Z" /><path
         id="path132"
         style="fill:#006b89;fill-opacity:1;fill-rule:evenodd;stroke:none"
         d="m 1011.13,1682.42 h 51.1328 v 76.2891 H 1011.13 Z" /><path
         id="path134"
         style="fill:#006b89;fill-opacity:1;fill-rule:evenodd;stroke:none"
         d="m 1080.94,2002.23 h 51.1289 v 76.2891 H 1080.94 Z" /><path
         id="path136"
         style="fill:#006b89;fill-opacity:1;fill-rule:evenodd;stroke:none"
         d="m 1080.94,1888.55 h 51.1289 v 76.3281 H 1080.94 Z" /><path
         id="path138"
         style="fill:#006b89;fill-opacity:1;fill-rule:evenodd;stroke:none"
         d="m 1080.94,1786.33 h 51.1289 v 76.293 H 1080.94 Z" /><path
         id="path140"
         style="fill:#006b89;fill-opacity:1;fill-rule:evenodd;stroke:none"
         d="m 1080.94,1682.42 h 51.1289 v 76.2891 H 1080.94 Z" /><path
         id="path142"
         style="fill:#006b89;fill-opacity:1;fill-rule:evenodd;stroke:none"
         d="m 1153.2,2002.23 h 51.1289 v 76.2891 H 1153.2 Z" /><path
         id="path144"
         style="fill:#006b89;fill-opacity:1;fill-rule:evenodd;stroke:none"
         d="m 1153.2,1888.55 h 51.1289 v 76.3281 H 1153.2 Z" /><path
         id="path146"
         style="fill:#006b89;fill-opacity:1;fill-rule:evenodd;stroke:none"
         d="m 1153.2,1786.33 h 51.1289 v 76.293 H 1153.2 Z" /><path
         id="path148"
         style="fill:#006b89;fill-opacity:1;fill-rule:evenodd;stroke:none"
         d="m 1153.2,1682.42 h 51.1289 v 76.2891 H 1153.2 Z" /><path
         id="path150"
         style="fill:#006b89;fill-opacity:1;fill-rule:evenodd;stroke:none"
         d="m 1343.95,1973.01 h 51.1289 v 76.2891 H 1343.95 Z" /><path
         id="path152"
         style="fill:#006b89;fill-opacity:1;fill-rule:evenodd;stroke:none"
         d="m 1340.7,1874.76 h 51.1289 v 76.3281 H 1340.7 Z" /><path
         id="path154"
         style="fill:#006b89;fill-opacity:1;fill-rule:evenodd;stroke:none"
         d="m 1342.3,1772.5 h 51.168 v 76.2891 H 1342.3 Z" /><path
         id="path156"
         style="fill:#006b89;fill-opacity:1;fill-rule:evenodd;stroke:none"
         d="m 5124.45,2005.47 h 51.1719 v 76.293 H 5124.45 Z" /><path
         id="path158"
         style="fill:#006b89;fill-opacity:1;fill-rule:evenodd;stroke:none"
         d="m 5053.87,2005.47 h 51.1289 v 76.293 H 5053.87 Z" /><path
         id="path160"
         style="fill:#006b89;fill-opacity:1;fill-rule:evenodd;stroke:none"
         d="m 4975.94,2005.47 h 51.1289 v 76.293 H 4975.94 Z" /><path
         id="path162"
         style="fill:#006b89;fill-opacity:1;fill-rule:evenodd;stroke:none"
         d="m 4905.31,2005.47 h 51.1328 v 76.293 H 4905.31 Z" /><path
         id="path164"
         style="fill:#006b89;fill-opacity:1;fill-rule:evenodd;stroke:none"
         d="m 4835.9,2005.47 h 51.1328 v 76.293 H 4835.9 Z" /><path
         id="path166"
         style="fill:#006b89;fill-opacity:1;fill-rule:evenodd;stroke:none"
         d="m 5124.45,1891.83 h 51.1719 v 76.2891 H 5124.45 Z" /><path
         id="path168"
         style="fill:#006b89;fill-opacity:1;fill-rule:evenodd;stroke:none"
         d="m 5053.87,1891.83 h 51.1289 v 76.2891 H 5053.87 Z" /><path
         id="path170"
         style="fill:#006b89;fill-opacity:1;fill-rule:evenodd;stroke:none"
         d="m 4975.94,1891.83 h 51.1289 v 76.2891 H 4975.94 Z" /><path
         id="path172"
         style="fill:#006b89;fill-opacity:1;fill-rule:evenodd;stroke:none"
         d="m 4905.31,1891.83 h 51.1328 v 76.2891 H 4905.31 Z" /><path
         id="path174"
         style="fill:#006b89;fill-opacity:1;fill-rule:evenodd;stroke:none"
         d="m 4835.9,1891.83 h 51.1328 v 76.2891 H 4835.9 Z" /><path
         id="path176"
         style="fill:#006b89;fill-opacity:1;fill-rule:evenodd;stroke:none"
         d="m 5124.45,1789.57 h 51.1719 v 76.2891 H 5124.45 Z" /><path
         id="path178"
         style="fill:#006b89;fill-opacity:1;fill-rule:evenodd;stroke:none"
         d="m 5053.87,1789.57 h 51.1289 v 76.2891 H 5053.87 Z" /><path
         id="path180"
         style="fill:#006b89;fill-opacity:1;fill-rule:evenodd;stroke:none"
         d="m 4975.94,1789.57 h 51.1289 v 76.2891 H 4975.94 Z" /><path
         id="path182"
         style="fill:#006b89;fill-opacity:1;fill-rule:evenodd;stroke:none"
         d="m 4905.31,1789.57 h 51.1328 v 76.2891 H 4905.31 Z" /><path
         id="path184"
         style="fill:#006b89;fill-opacity:1;fill-rule:evenodd;stroke:none"
         d="m 4835.9,1789.57 h 51.1328 v 76.2891 H 4835.9 Z" /><path
         id="path186"
         style="fill:#006b89;fill-opacity:1;fill-rule:evenodd;stroke:none"
         d="m 5124.45,1685.66 h 51.1719 v 76.2891 H 5124.45 Z" /><path
         id="path188"
         style="fill:#006b89;fill-opacity:1;fill-rule:evenodd;stroke:none"
         d="m 5053.87,1685.66 h 51.1289 v 76.2891 H 5053.87 Z" /><path
         id="path190"
         style="fill:#006b89;fill-opacity:1;fill-rule:evenodd;stroke:none"
         d="m 4975.94,1685.66 h 51.1289 v 76.2891 H 4975.94 Z" /><path
         id="path192"
         style="fill:#006b89;fill-opacity:1;fill-rule:evenodd;stroke:none"
         d="m 4905.31,1685.66 h 51.1328 v 76.2891 H 4905.31 Z" /><path
         id="path194"
         style="fill:#006b89;fill-opacity:1;fill-rule:evenodd;stroke:none"
         d="m 4835.9,1685.66 h 51.1328 v 76.2891 H 4835.9 Z" /><path
         id="path196"
         style="fill:#006b89;fill-opacity:1;fill-rule:evenodd;stroke:none"
         d="m 4742.15,2005.47 h 51.1328 v 76.293 H 4742.15 Z" /><path
         id="path198"
         style="fill:#006b89;fill-opacity:1;fill-rule:evenodd;stroke:none"
         d="m 4739.69,1891.83 h 51.1289 v 76.2891 H 4739.69 Z" /><path
         id="path200"
         style="fill:#006b89;fill-opacity:1;fill-rule:evenodd;stroke:none"
         d="m 4738.48,1789.57 h 51.1289 v 76.2891 H 4738.48 Z" /><path
         id="path202"
         style="fill:#006b89;fill-opacity:1;fill-rule:evenodd;stroke:none"
         d="m 4738.48,1685.66 h 51.1289 v 76.2891 H 4738.48 Z" /><path
         id="path204"
         style="fill:#006b89;fill-opacity:1;fill-rule:evenodd;stroke:none"
         d="m 4639.84,2005.47 h 51.1719 v 76.293 H 4639.84 Z" /><path
         id="path206"
         style="fill:#006b89;fill-opacity:1;fill-rule:evenodd;stroke:none"
         d="m 4638.63,1891.83 h 51.1328 v 76.2891 H 4638.63 Z" /><path
         id="path208"
         style="fill:#006b89;fill-opacity:1;fill-rule:evenodd;stroke:none"
         d="m 4636.17,1789.57 h 51.1289 v 76.2891 H 4636.17 Z" /><path
         id="path210"
         style="fill:#006b89;fill-opacity:1;fill-rule:evenodd;stroke:none"
         d="m 4634.96,1685.66 h 51.1289 v 76.2891 H 4634.96 Z" /><path
         id="path212"
         style="fill:#006b89;fill-opacity:1;fill-rule:evenodd;stroke:none"
         d="m 4564.77,2005.47 h 51.1719 v 76.293 H 4564.77 Z" /><path
         id="path214"
         style="fill:#006b89;fill-opacity:1;fill-rule:evenodd;stroke:none"
         d="m 4563.55,1891.83 h 51.1289 v 76.2891 H 4563.55 Z" /><path
         id="path216"
         style="fill:#006b89;fill-opacity:1;fill-rule:evenodd;stroke:none"
         d="m 4561.09,1789.57 h 51.1289 v 76.2891 H 4561.09 Z" /><path
         id="path218"
         style="fill:#006b89;fill-opacity:1;fill-rule:evenodd;stroke:none"
         d="m 4562.34,1685.66 h 51.1289 v 76.2891 H 4562.34 Z" /><path
         id="path220"
         style="fill:#006b89;fill-opacity:1;fill-rule:evenodd;stroke:none"
         d="m 4469.38,2005.47 h 51.1719 v 76.293 H 4469.38 Z" /><path
         id="path222"
         style="fill:#006b89;fill-opacity:1;fill-rule:evenodd;stroke:none"
         d="m 4466.95,1894.26 h 51.1328 v 76.3281 H 4466.95 Z" /><path
         id="path224"
         style="fill:#006b89;fill-opacity:1;fill-rule:evenodd;stroke:none"
         d="m 4464.1,1780.62 h 51.168 v 76.2891 H 4464.1 Z" /><path
         id="path226"
         style="fill:#006b89;fill-opacity:1;fill-rule:evenodd;stroke:none"
         d="m 4464.49,1681.99 h 51.1289 v 76.293 H 4464.49 Z" /><path
         id="path228"
         style="fill:#006b89;fill-opacity:1;fill-rule:evenodd;stroke:none"
         d="m 4376.84,2002.23 h 51.1719 v 76.2891 H 4376.84 Z" /><path
         id="path230"
         style="fill:#006b89;fill-opacity:1;fill-rule:evenodd;stroke:none"
         d="m 4376.84,1888.55 h 51.1719 v 76.3281 H 4376.84 Z" /><path
         id="path232"
         style="fill:#006b89;fill-opacity:1;fill-rule:evenodd;stroke:none"
         d="m 4376.84,1786.33 h 51.1719 v 76.293 H 4376.84 Z" /><path
         id="path234"
         style="fill:#006b89;fill-opacity:1;fill-rule:evenodd;stroke:none"
         d="m 4376.84,1682.42 h 51.1719 v 76.2891 H 4376.84 Z" /><path
         id="path236"
         style="fill:#006b89;fill-opacity:1;fill-rule:evenodd;stroke:none"
         d="m 4309.06,2002.23 h 51.1328 v 76.2891 H 4309.06 Z" /><path
         id="path238"
         style="fill:#006b89;fill-opacity:1;fill-rule:evenodd;stroke:none"
         d="m 4309.06,1888.55 h 51.1328 v 76.3281 H 4309.06 Z" /><path
         id="path240"
         style="fill:#006b89;fill-opacity:1;fill-rule:evenodd;stroke:none"
         d="m 4309.06,1786.33 h 51.1328 v 76.293 H 4309.06 Z" /><path
         id="path242"
         style="fill:#006b89;fill-opacity:1;fill-rule:evenodd;stroke:none"
         d="m 4309.06,1682.42 h 51.1328 v 76.2891 H 4309.06 Z" /><path
         id="path244"
         style="fill:#006b89;fill-opacity:1;fill-rule:evenodd;stroke:none"
         d="m 4228.71,2002.23 h 51.1289 v 76.2891 H 4228.71 Z" /><path
         id="path246"
         style="fill:#006b89;fill-opacity:1;fill-rule:evenodd;stroke:none"
         d="m 4228.71,1888.55 h 51.1289 v 76.3281 H 4228.71 Z" /><path
         id="path248"
         style="fill:#006b89;fill-opacity:1;fill-rule:evenodd;stroke:none"
         d="m 4228.71,1786.33 h 51.1289 v 76.293 H 4228.71 Z" /><path
         id="path250"
         style="fill:#006b89;fill-opacity:1;fill-rule:evenodd;stroke:none"
         d="m 4228.71,1682.42 h 51.1289 v 76.2891 H 4228.71 Z" /><path
         id="path252"
         style="fill:#006b89;fill-opacity:1;fill-rule:evenodd;stroke:none"
         d="m 4158.91,2002.23 h 51.1289 v 76.2891 H 4158.91 Z" /><path
         id="path254"
         style="fill:#006b89;fill-opacity:1;fill-rule:evenodd;stroke:none"
         d="m 4158.91,1888.55 h 51.1289 v 76.3281 H 4158.91 Z" /><path
         id="path256"
         style="fill:#006b89;fill-opacity:1;fill-rule:evenodd;stroke:none"
         d="m 4158.91,1786.33 h 51.1289 v 76.293 H 4158.91 Z" /><path
         id="path258"
         style="fill:#006b89;fill-opacity:1;fill-rule:evenodd;stroke:none"
         d="m 4158.91,1682.42 h 51.1289 v 76.2891 H 4158.91 Z" /><path
         id="path260"
         style="fill:#006b89;fill-opacity:1;fill-rule:evenodd;stroke:none"
         d="m 4086.64,2002.23 h 51.168 v 76.2891 h -51.168 z" /><path
         id="path262"
         style="fill:#006b89;fill-opacity:1;fill-rule:evenodd;stroke:none"
         d="m 4086.64,1888.55 h 51.168 v 76.3281 h -51.168 z" /><path
         id="path264"
         style="fill:#006b89;fill-opacity:1;fill-rule:evenodd;stroke:none"
         d="m 4086.64,1786.33 h 51.168 v 76.293 h -51.168 z" /><path
         id="path266"
         style="fill:#006b89;fill-opacity:1;fill-rule:evenodd;stroke:none"
         d="m 4086.64,1682.42 h 51.168 v 76.2891 h -51.168 z" /><path
         id="path268"
         style="fill:#006b89;fill-opacity:1;fill-rule:evenodd;stroke:none"
         d="m 3895.9,1973.01 h 51.1328 v 76.2891 H 3895.9 Z" /><path
         id="path270"
         style="fill:#006b89;fill-opacity:1;fill-rule:evenodd;stroke:none"
         d="m 3899.14,1874.76 h 51.1289 v 76.3281 H 3899.14 Z" /><path
         id="path272"
         style="fill:#006b89;fill-opacity:1;fill-rule:evenodd;stroke:none"
         d="m 3897.5,1772.5 h 51.1719 v 76.2891 H 3897.5 Z" /><path
         id="path274"
         style="fill:#006b89;fill-opacity:1;fill-rule:evenodd;stroke:none"
         d="m 2688.4,2974.07 h 51.1328 v 67.3789 H 2688.4 Z" /><path
         id="path276"
         style="fill:#006b89;fill-opacity:1;fill-rule:evenodd;stroke:none"
         d="m 2617.77,2974.07 h 51.1289 v 67.3789 H 2617.77 Z" /><path
         id="path278"
         style="fill:#006b89;fill-opacity:1;fill-rule:evenodd;stroke:none"
         d="m 2544.73,2974.07 h 51.1289 v 67.3789 H 2544.73 Z" /><path
         id="path280"
         style="fill:#006b89;fill-opacity:1;fill-rule:evenodd;stroke:none"
         d="m 2688.4,2877.89 h 51.1328 v 67.3789 H 2688.4 Z" /><path
         id="path282"
         style="fill:#006b89;fill-opacity:1;fill-rule:evenodd;stroke:none"
         d="m 2617.77,2877.89 h 51.1289 v 67.3789 H 2617.77 Z" /><path
         id="path284"
         style="fill:#006b89;fill-opacity:1;fill-rule:evenodd;stroke:none"
         d="m 2544.73,2877.89 h 51.1289 v 67.3789 H 2544.73 Z" /><path
         id="path286"
         style="fill:#006b89;fill-opacity:1;fill-rule:evenodd;stroke:none"
         d="m 2688.4,2695.86 h 51.1328 v 64.3398 H 2688.4 Z" /><path
         id="path288"
         style="fill:#006b89;fill-opacity:1;fill-rule:evenodd;stroke:none"
         d="m 2617.77,2695.86 h 51.1289 v 64.3398 H 2617.77 Z" /><path
         id="path290"
         style="fill:#006b89;fill-opacity:1;fill-rule:evenodd;stroke:none"
         d="m 2544.73,2695.86 h 51.1289 v 64.3398 H 2544.73 Z" /><path
         id="path292"
         style="fill:#006b89;fill-opacity:1;fill-rule:evenodd;stroke:none"
         d="m 2688.4,2607.58 h 51.1328 v 62.0703 H 2688.4 Z" /><path
         id="path294"
         style="fill:#006b89;fill-opacity:1;fill-rule:evenodd;stroke:none"
         d="m 2617.77,2607.58 h 51.1289 v 62.0703 H 2617.77 Z" /><path
         id="path296"
         style="fill:#006b89;fill-opacity:1;fill-rule:evenodd;stroke:none"
         d="m 2544.73,2607.58 h 51.1289 v 62.0703 H 2544.73 Z" /><path
         id="path298"
         style="fill:#006b89;fill-opacity:1;fill-rule:evenodd;stroke:none"
         d="m 2524.8,2464.38 h 57.6602 v 72.4609 H 2524.8 Z" /><path
         id="path300"
         style="fill:#006b89;fill-opacity:1;fill-rule:evenodd;stroke:none"
         d="m 2611.88,2465.51 h 56.6016 v 72.457 H 2611.88 Z" /><path
         id="path302"
         style="fill:#006b89;fill-opacity:1;fill-rule:evenodd;stroke:none"
         d="m 2701.17,2465.51 h 56.5977 v 72.457 H 2701.17 Z" /><path
         id="path304"
         style="fill:#006b89;fill-opacity:1;fill-rule:evenodd;stroke:none"
         d="m 2524.45,2356.45 h 57.6602 v 72.4219 H 2524.45 Z" /><path
         id="path306"
         style="fill:#006b89;fill-opacity:1;fill-rule:evenodd;stroke:none"
         d="m 2611.52,2357.54 h 56.6016 v 72.4609 H 2611.52 Z" /><path
         id="path308"
         style="fill:#006b89;fill-opacity:1;fill-rule:evenodd;stroke:none"
         d="m 2700.82,2357.54 h 56.6016 v 72.4609 H 2700.82 Z" /><path
         id="path310"
         style="fill:#006b89;fill-opacity:1;fill-rule:evenodd;stroke:none"
         d="m 2524.45,2246.02 h 57.6602 v 72.4609 H 2524.45 Z" /><path
         id="path312"
         style="fill:#006b89;fill-opacity:1;fill-rule:evenodd;stroke:none"
         d="m 2611.52,2247.15 h 56.6016 v 72.4609 H 2611.52 Z" /><path
         id="path314"
         style="fill:#006b89;fill-opacity:1;fill-rule:evenodd;stroke:none"
         d="m 2700.82,2247.15 h 56.6016 v 72.4609 H 2700.82 Z" /><path
         id="path316"
         style="fill:#006b89;fill-opacity:1;fill-rule:evenodd;stroke:none"
         d="m 2524.45,2020.39 h 57.6602 v 72.418 H 2524.45 Z" /><path
         id="path318"
         style="fill:#006b89;fill-opacity:1;fill-rule:evenodd;stroke:none"
         d="m 2611.52,2021.49 h 56.6016 v 72.4609 H 2611.52 Z" /><path
         id="path320"
         style="fill:#006b89;fill-opacity:1;fill-rule:evenodd;stroke:none"
         d="m 2700.82,2021.49 h 56.6016 v 72.4609 H 2700.82 Z" /><path
         id="path322"
         style="fill:#006b89;fill-opacity:1;fill-rule:evenodd;stroke:none"
         d="m 2524.45,2133.2 h 57.6602 v 72.4219 H 2524.45 Z" /><path
         id="path324"
         style="fill:#006b89;fill-opacity:1;fill-rule:evenodd;stroke:none"
         d="m 2611.52,2134.34 h 56.6016 v 72.4219 H 2611.52 Z" /><path
         id="path326"
         style="fill:#006b89;fill-opacity:1;fill-rule:evenodd;stroke:none"
         d="m 2700.82,2134.34 h 56.6016 v 72.4219 H 2700.82 Z" /><path
         id="path328"
         style="fill:#006b89;fill-opacity:1;fill-rule:evenodd;stroke:none"
         d="m 2409.1,2464.38 h 57.6172 v 72.4609 H 2409.1 Z" /><path
         id="path330"
         style="fill:#006b89;fill-opacity:1;fill-rule:evenodd;stroke:none"
         d="m 2408.75,2356.45 h 57.6211 v 72.4219 H 2408.75 Z" /><path
         id="path332"
         style="fill:#006b89;fill-opacity:1;fill-rule:evenodd;stroke:none"
         d="m 2408.75,2246.02 h 57.6211 v 72.4609 H 2408.75 Z" /><path
         id="path334"
         style="fill:#006b89;fill-opacity:1;fill-rule:evenodd;stroke:none"
         d="m 2408.75,2020.39 h 57.6211 v 72.418 H 2408.75 Z" /><path
         id="path336"
         style="fill:#006b89;fill-opacity:1;fill-rule:evenodd;stroke:none"
         d="m 2408.75,2133.2 h 57.6211 v 72.4219 H 2408.75 Z" /><path
         id="path338"
         style="fill:#006b89;fill-opacity:1;fill-rule:evenodd;stroke:none"
         d="m 2819.84,2464.38 h 57.6211 v 72.4609 H 2819.84 Z" /><path
         id="path340"
         style="fill:#006b89;fill-opacity:1;fill-rule:evenodd;stroke:none"
         d="m 2819.49,2356.45 h 57.6211 v 72.4219 H 2819.49 Z" /><path
         id="path342"
         style="fill:#006b89;fill-opacity:1;fill-rule:evenodd;stroke:none"
         d="m 2819.49,2246.02 h 57.6211 v 72.4609 H 2819.49 Z" /><path
         id="path344"
         style="fill:#006b89;fill-opacity:1;fill-rule:evenodd;stroke:none"
         d="m 2819.49,2020.39 h 57.6211 v 72.418 H 2819.49 Z" /><path
         id="path346"
         style="fill:#006b89;fill-opacity:1;fill-rule:evenodd;stroke:none"
         d="m 2819.49,2133.2 h 57.6211 v 72.4219 H 2819.49 Z" /><path
         id="path348"
         style="fill:#006b89;fill-opacity:1;fill-rule:evenodd;stroke:none"
         d="m 2949.57,2108.55 h 51.1289 v 76.2891 H 2949.57 Z" /><path
         id="path350"
         style="fill:#006b89;fill-opacity:1;fill-rule:evenodd;stroke:none"
         d="m 3000.31,2288.16 c 0,11.76 -14.53,25.98 -25.9,25.94 -11.36,0 -25.27,-14.49 -25.27,-25.94 v -67.18 h 51.17 c 0,22.38 0,44.76 0,67.18 z" /><path
         id="path352"
         style="fill:#006b89;fill-opacity:1;fill-rule:evenodd;stroke:none"
         d="m 3083.09,2288.16 c 0,11.76 -14.5,25.98 -25.86,25.94 -11.37,0 -25.28,-14.49 -25.28,-25.94 v -67.18 h 51.14 c 0,22.38 0,44.76 0,67.18 z" /><path
         id="path354"
         style="fill:#006b89;fill-opacity:1;fill-rule:evenodd;stroke:none"
         d="m 3163.48,2288.16 c 0,11.76 -14.53,25.98 -25.9,25.94 -11.37,0 -25.28,-14.49 -25.28,-25.94 v -67.18 h 51.18 c 0,22.38 0,44.76 0,67.18 z" /><path
         id="path356"
         style="fill:#006b89;fill-opacity:1;fill-rule:evenodd;stroke:none"
         d="m 3246.25,2288.16 c 0,11.76 -14.49,25.98 -25.86,25.94 -11.37,0 -25.27,-14.49 -25.27,-25.94 v -67.18 h 51.13 c 0,22.38 0,44.76 0,67.18 z" /><path
         id="path358"
         style="fill:#006b89;fill-opacity:1;fill-rule:evenodd;stroke:none"
         d="m 3326.64,2288.16 c 0,11.76 -14.53,25.98 -25.9,25.94 -11.36,0 -25.27,-14.49 -25.27,-25.94 v -67.18 h 51.17 c 0,22.38 0,44.76 0,67.18 z" /><path
         id="path360"
         style="fill:#006b89;fill-opacity:1;fill-rule:evenodd;stroke:none"
         d="m 3409.41,2288.16 c 0,11.76 -14.49,25.98 -25.86,25.94 -11.36,0 -25.27,-14.49 -25.27,-25.94 v -67.18 h 51.13 c 0,22.38 0,44.76 0,67.18 z" /><path
         id="path362"
         style="fill:#006b89;fill-opacity:1;fill-rule:evenodd;stroke:none"
         d="m 3489.77,2288.16 c 0,11.76 -14.5,25.98 -25.86,25.94 -11.37,0 -25.28,-14.49 -25.28,-25.94 v -67.18 h 51.14 c 0,22.38 0,44.76 0,67.18 z" /><path
         id="path364"
         style="fill:#006b89;fill-opacity:1;fill-rule:evenodd;stroke:none"
         d="m 3572.58,2288.16 c 0,11.76 -14.49,25.98 -25.86,25.94 -11.37,0 -25.27,-14.49 -25.27,-25.94 v -67.18 h 51.13 c 0,22.38 0,44.76 0,67.18 z" /><path
         id="path366"
         style="fill:#006b89;fill-opacity:1;fill-rule:evenodd;stroke:none"
         d="m 3654.57,2288.16 c 0,11.76 -14.53,25.98 -25.86,25.94 -11.37,0 -25.27,-14.49 -25.27,-25.94 v -67.18 h 51.13 c 0,22.38 0,44.76 0,67.18 z" /><path
         id="path368"
         style="fill:#006b89;fill-opacity:1;fill-rule:evenodd;stroke:none"
         d="m 3737.38,2288.16 c 0,11.76 -14.53,25.98 -25.9,25.94 -11.36,0 -25.27,-14.49 -25.27,-25.94 v -67.18 h 51.17 c 0,22.38 0,44.76 0,67.18 z" /><path
         id="path370"
         style="fill:#006b89;fill-opacity:1;fill-rule:evenodd;stroke:none"
         d="m 2949.57,1999.76 h 51.1289 v 70.9375 H 2949.57 Z" /><path
         id="path372"
         style="fill:#006b89;fill-opacity:1;fill-rule:evenodd;stroke:none"
         d="m 3032.38,2108.55 h 51.1328 v 76.2891 H 3032.38 Z" /><path
         id="path374"
         style="fill:#006b89;fill-opacity:1;fill-rule:evenodd;stroke:none"
         d="m 3032.38,1999.76 h 51.1328 v 70.9375 H 3032.38 Z" /><path
         id="path376"
         style="fill:#006b89;fill-opacity:1;fill-rule:evenodd;stroke:none"
         d="m 3111.09,2108.55 h 51.1289 v 76.2891 H 3111.09 Z" /><path
         id="path378"
         style="fill:#006b89;fill-opacity:1;fill-rule:evenodd;stroke:none"
         d="m 3111.09,1999.76 h 51.1289 v 70.9375 H 3111.09 Z" /><path
         id="path380"
         style="fill:#006b89;fill-opacity:1;fill-rule:evenodd;stroke:none"
         d="m 3191.48,2108.55 h 51.1289 v 76.2891 H 3191.48 Z" /><path
         id="path382"
         style="fill:#006b89;fill-opacity:1;fill-rule:evenodd;stroke:none"
         d="m 3191.48,1999.76 h 51.1289 v 70.9375 H 3191.48 Z" /><path
         id="path384"
         style="fill:#006b89;fill-opacity:1;fill-rule:evenodd;stroke:none"
         d="m 3275.9,2108.55 h 51.1328 v 76.2891 H 3275.9 Z" /><path
         id="path386"
         style="fill:#006b89;fill-opacity:1;fill-rule:evenodd;stroke:none"
         d="m 3275.9,1999.76 h 51.1328 v 70.9375 H 3275.9 Z" /><path
         id="path388"
         style="fill:#006b89;fill-opacity:1;fill-rule:evenodd;stroke:none"
         d="m 3355.43,2108.55 h 51.1289 v 76.2891 H 3355.43 Z" /><path
         id="path390"
         style="fill:#006b89;fill-opacity:1;fill-rule:evenodd;stroke:none"
         d="m 3355.43,1999.76 h 51.1289 v 70.9375 H 3355.43 Z" /><path
         id="path392"
         style="fill:#006b89;fill-opacity:1;fill-rule:evenodd;stroke:none"
         d="m 3438.24,2108.55 h 51.1328 v 76.2891 H 3438.24 Z" /><path
         id="path394"
         style="fill:#006b89;fill-opacity:1;fill-rule:evenodd;stroke:none"
         d="m 3438.24,1999.76 h 51.1328 v 70.9375 H 3438.24 Z" /><path
         id="path396"
         style="fill:#006b89;fill-opacity:1;fill-rule:evenodd;stroke:none"
         d="m 3520.66,2108.55 h 51.1289 v 76.2891 H 3520.66 Z" /><path
         id="path398"
         style="fill:#006b89;fill-opacity:1;fill-rule:evenodd;stroke:none"
         d="m 3520.66,1999.76 h 51.1289 v 70.9375 H 3520.66 Z" /><path
         id="path400"
         style="fill:#006b89;fill-opacity:1;fill-rule:evenodd;stroke:none"
         d="m 3601.02,2108.55 h 51.1289 v 76.2891 H 3601.02 Z" /><path
         id="path402"
         style="fill:#006b89;fill-opacity:1;fill-rule:evenodd;stroke:none"
         d="m 3601.02,1999.76 h 51.1289 v 70.9375 H 3601.02 Z" /><path
         id="path404"
         style="fill:#006b89;fill-opacity:1;fill-rule:evenodd;stroke:none"
         d="m 3685.43,2108.55 h 51.1719 v 76.2891 H 3685.43 Z" /><path
         id="path406"
         style="fill:#006b89;fill-opacity:1;fill-rule:evenodd;stroke:none"
         d="m 3685.43,1999.76 h 51.1719 v 70.9375 H 3685.43 Z" /><path
         id="path408"
         style="fill:#006b89;fill-opacity:1;fill-rule:evenodd;stroke:none"
         d="m 3111.09,1891.48 h 51.1289 v 74.6484 H 3111.09 Z" /><path
         id="path410"
         style="fill:#006b89;fill-opacity:1;fill-rule:evenodd;stroke:none"
         d="m 3191.48,1891.48 h 51.1289 v 74.6484 H 3191.48 Z" /><path
         id="path412"
         style="fill:#006b89;fill-opacity:1;fill-rule:evenodd;stroke:none"
         d="m 3275.9,1891.48 h 51.1328 v 74.6484 H 3275.9 Z" /><path
         id="path414"
         style="fill:#006b89;fill-opacity:1;fill-rule:evenodd;stroke:none"
         d="m 3355.43,1891.48 h 51.1289 v 74.6484 H 3355.43 Z" /><path
         id="path416"
         style="fill:#006b89;fill-opacity:1;fill-rule:evenodd;stroke:none"
         d="m 3438.24,1891.48 h 51.1328 v 74.6484 H 3438.24 Z" /><path
         id="path418"
         style="fill:#006b89;fill-opacity:1;fill-rule:evenodd;stroke:none"
         d="m 3520.66,1891.48 h 51.1289 v 74.6484 H 3520.66 Z" /><path
         id="path420"
         style="fill:#006b89;fill-opacity:1;fill-rule:evenodd;stroke:none"
         d="m 3601.02,1891.48 h 51.1289 v 74.6484 H 3601.02 Z" /><path
         id="path422"
         style="fill:#006b89;fill-opacity:1;fill-rule:evenodd;stroke:none"
         d="m 3685.43,1891.48 h 51.1719 v 74.6484 H 3685.43 Z" /><path
         id="path424"
         style="fill:#006b89;fill-opacity:1;fill-rule:evenodd;stroke:none"
         d="m 3111.09,1788.01 h 51.1289 v 74.4492 H 3111.09 Z" /><path
         id="path426"
         style="fill:#006b89;fill-opacity:1;fill-rule:evenodd;stroke:none"
         d="m 3191.48,1788.01 h 51.1289 v 74.4492 H 3191.48 Z" /><path
         id="path428"
         style="fill:#006b89;fill-opacity:1;fill-rule:evenodd;stroke:none"
         d="m 3275.9,1788.01 h 51.1328 v 74.4492 H 3275.9 Z" /><path
         id="path430"
         style="fill:#006b89;fill-opacity:1;fill-rule:evenodd;stroke:none"
         d="m 3355.43,1788.01 h 51.1289 v 74.4492 H 3355.43 Z" /><path
         id="path432"
         style="fill:#006b89;fill-opacity:1;fill-rule:evenodd;stroke:none"
         d="m 3438.24,1788.01 h 51.1328 v 74.4492 H 3438.24 Z" /><path
         id="path434"
         style="fill:#006b89;fill-opacity:1;fill-rule:evenodd;stroke:none"
         d="m 3520.66,1788.01 h 51.1289 v 74.4492 H 3520.66 Z" /><path
         id="path436"
         style="fill:#006b89;fill-opacity:1;fill-rule:evenodd;stroke:none"
         d="m 3601.02,1788.01 h 51.1289 v 74.4492 H 3601.02 Z" /><path
         id="path438"
         style="fill:#006b89;fill-opacity:1;fill-rule:evenodd;stroke:none"
         d="m 3685.43,1788.01 h 51.1719 v 74.4492 H 3685.43 Z" /><path
         id="path440"
         style="fill:#006b89;fill-opacity:1;fill-rule:evenodd;stroke:none"
         d="m 3111.09,1683.48 h 51.1289 v 73.6289 H 3111.09 Z" /><path
         id="path442"
         style="fill:#006b89;fill-opacity:1;fill-rule:evenodd;stroke:none"
         d="m 3191.48,1683.48 h 51.1289 v 73.6289 H 3191.48 Z" /><path
         id="path444"
         style="fill:#006b89;fill-opacity:1;fill-rule:evenodd;stroke:none"
         d="m 3275.9,1683.48 h 51.1328 v 73.6289 H 3275.9 Z" /><path
         id="path446"
         style="fill:#006b89;fill-opacity:1;fill-rule:evenodd;stroke:none"
         d="m 3355.43,1683.48 h 51.1289 v 73.6289 H 3355.43 Z" /><path
         id="path448"
         style="fill:#006b89;fill-opacity:1;fill-rule:evenodd;stroke:none"
         d="m 3438.24,1683.48 h 51.1328 v 73.6289 H 3438.24 Z" /><path
         id="path450"
         style="fill:#006b89;fill-opacity:1;fill-rule:evenodd;stroke:none"
         d="m 3520.66,1683.48 h 51.1289 v 73.6289 H 3520.66 Z" /><path
         id="path452"
         style="fill:#006b89;fill-opacity:1;fill-rule:evenodd;stroke:none"
         d="m 3601.02,1683.48 h 51.1289 v 73.6289 H 3601.02 Z" /><path
         id="path454"
         style="fill:#006b89;fill-opacity:1;fill-rule:evenodd;stroke:none"
         d="m 3685.43,1683.48 h 51.1719 v 73.6289 H 3685.43 Z" /><path
         id="path456"
         style="fill:#006b89;fill-opacity:1;fill-rule:evenodd;stroke:none"
         d="m 2288.91,2108.55 h 51.1289 v 76.2891 H 2288.91 Z" /><path
         id="path458"
         style="fill:#006b89;fill-opacity:1;fill-rule:evenodd;stroke:none"
         d="m 2289.34,2288.16 c 0,11.76 14.49,25.98 25.86,25.94 11.36,0 25.27,-14.49 25.27,-25.94 v -67.18 h -51.13 c 0,22.38 0,44.76 0,67.18 z" /><path
         id="path460"
         style="fill:#006b89;fill-opacity:1;fill-rule:evenodd;stroke:none"
         d="m 2206.52,2288.16 c 0,11.76 14.5,25.98 25.86,25.94 11.37,0 25.28,-14.49 25.28,-25.94 v -67.18 h -51.14 c 0,22.38 0,44.76 0,67.18 z" /><path
         id="path462"
         style="fill:#006b89;fill-opacity:1;fill-rule:evenodd;stroke:none"
         d="m 2126.17,2288.16 c 0,11.76 14.49,25.98 25.86,25.94 11.37,0 25.27,-14.49 25.27,-25.94 v -67.18 h -51.13 c 0,22.38 0,44.76 0,67.18 z" /><path
         id="path464"
         style="fill:#006b89;fill-opacity:1;fill-rule:evenodd;stroke:none"
         d="m 2043.36,2288.16 c 0,11.76 14.53,25.98 25.86,25.94 11.37,0 25.27,-14.49 25.27,-25.94 v -67.18 h -51.13 c 0,22.38 0,44.76 0,67.18 z" /><path
         id="path466"
         style="fill:#006b89;fill-opacity:1;fill-rule:evenodd;stroke:none"
         d="m 1963.01,2288.16 c 0,11.76 14.49,25.98 25.86,25.94 11.36,0 25.27,-14.49 25.27,-25.94 v -67.18 h -51.13 c 0,22.38 0,44.76 0,67.18 z" /><path
         id="path468"
         style="fill:#006b89;fill-opacity:1;fill-rule:evenodd;stroke:none"
         d="m 1880.2,2288.16 c 0,11.76 14.53,25.98 25.89,25.94 11.33,0 25.24,-14.49 25.24,-25.94 v -67.18 h -51.13 c 0,22.38 0,44.76 0,67.18 z" /><path
         id="path470"
         style="fill:#006b89;fill-opacity:1;fill-rule:evenodd;stroke:none"
         d="m 1799.84,2288.16 c 0,11.76 14.5,25.98 25.86,25.94 11.37,0 25.28,-14.49 25.28,-25.94 v -67.18 h -51.14 c 0,22.38 0,44.76 0,67.18 z" /><path
         id="path472"
         style="fill:#006b89;fill-opacity:1;fill-rule:evenodd;stroke:none"
         d="m 1717.03,2288.16 c 0,11.76 14.53,25.98 25.9,25.94 11.37,0 25.23,-14.49 25.23,-25.94 v -67.18 h -51.13 c 0,22.38 0,44.76 0,67.18 z" /><path
         id="path474"
         style="fill:#006b89;fill-opacity:1;fill-rule:evenodd;stroke:none"
         d="m 1635.04,2288.16 c 0,11.76 14.53,25.98 25.9,25.94 11.36,0 25.27,-14.49 25.27,-25.94 v -67.18 h -51.17 c 0,22.38 0,44.76 0,67.18 z" /><path
         id="path476"
         style="fill:#006b89;fill-opacity:1;fill-rule:evenodd;stroke:none"
         d="m 1552.27,2288.16 c 0,11.76 14.49,25.98 25.85,25.94 11.37,0 25.28,-14.49 25.28,-25.94 v -67.18 h -51.13 c 0,22.38 0,44.76 0,67.18 z" /><path
         id="path478"
         style="fill:#006b89;fill-opacity:1;fill-rule:evenodd;stroke:none"
         d="m 2288.91,1999.76 h 51.1289 v 70.9375 H 2288.91 Z" /><path
         id="path480"
         style="fill:#006b89;fill-opacity:1;fill-rule:evenodd;stroke:none"
         d="m 2206.13,2108.55 h 51.1328 v 76.2891 H 2206.13 Z" /><path
         id="path482"
         style="fill:#006b89;fill-opacity:1;fill-rule:evenodd;stroke:none"
         d="m 2206.13,1999.76 h 51.1328 v 70.9375 H 2206.13 Z" /><path
         id="path484"
         style="fill:#006b89;fill-opacity:1;fill-rule:evenodd;stroke:none"
         d="m 2127.38,2108.55 h 51.1328 v 76.2891 H 2127.38 Z" /><path
         id="path486"
         style="fill:#006b89;fill-opacity:1;fill-rule:evenodd;stroke:none"
         d="m 2127.38,1999.76 h 51.1328 v 70.9375 H 2127.38 Z" /><path
         id="path488"
         style="fill:#006b89;fill-opacity:1;fill-rule:evenodd;stroke:none"
         d="m 2047.03,2108.55 h 51.1289 v 76.2891 H 2047.03 Z" /><path
         id="path490"
         style="fill:#006b89;fill-opacity:1;fill-rule:evenodd;stroke:none"
         d="m 2047.03,1999.76 h 51.1289 v 70.9375 H 2047.03 Z" /><path
         id="path492"
         style="fill:#006b89;fill-opacity:1;fill-rule:evenodd;stroke:none"
         d="m 1962.58,2108.55 h 51.1719 v 76.2891 H 1962.58 Z" /><path
         id="path494"
         style="fill:#006b89;fill-opacity:1;fill-rule:evenodd;stroke:none"
         d="m 1962.58,1999.76 h 51.1719 v 70.9375 H 1962.58 Z" /><path
         id="path496"
         style="fill:#006b89;fill-opacity:1;fill-rule:evenodd;stroke:none"
         d="m 1883.05,2108.55 h 51.1289 v 76.2891 H 1883.05 Z" /><path
         id="path498"
         style="fill:#006b89;fill-opacity:1;fill-rule:evenodd;stroke:none"
         d="m 1883.05,1999.76 h 51.1289 v 70.9375 H 1883.05 Z" /><path
         id="path500"
         style="fill:#006b89;fill-opacity:1;fill-rule:evenodd;stroke:none"
         d="m 1800.23,2108.55 h 51.1289 v 76.2891 H 1800.23 Z" /><path
         id="path502"
         style="fill:#006b89;fill-opacity:1;fill-rule:evenodd;stroke:none"
         d="m 1800.23,1999.76 h 51.1289 v 70.9375 H 1800.23 Z" /><path
         id="path504"
         style="fill:#006b89;fill-opacity:1;fill-rule:evenodd;stroke:none"
         d="m 1717.81,2108.55 h 51.1328 v 76.2891 H 1717.81 Z" /><path
         id="path506"
         style="fill:#006b89;fill-opacity:1;fill-rule:evenodd;stroke:none"
         d="m 1717.81,1999.76 h 51.1328 v 70.9375 H 1717.81 Z" /><path
         id="path508"
         style="fill:#006b89;fill-opacity:1;fill-rule:evenodd;stroke:none"
         d="m 1637.46,2108.55 h 51.1289 v 76.2891 H 1637.46 Z" /><path
         id="path510"
         style="fill:#006b89;fill-opacity:1;fill-rule:evenodd;stroke:none"
         d="m 1637.46,1999.76 h 51.1289 v 70.9375 H 1637.46 Z" /><path
         id="path512"
         style="fill:#006b89;fill-opacity:1;fill-rule:evenodd;stroke:none"
         d="m 1553.05,2108.55 h 51.1289 v 76.2891 H 1553.05 Z" /><path
         id="path514"
         style="fill:#006b89;fill-opacity:1;fill-rule:evenodd;stroke:none"
         d="m 1553.05,1999.76 h 51.1289 v 70.9375 H 1553.05 Z" /><path
         id="path516"
         style="fill:#006b89;fill-opacity:1;fill-rule:evenodd;stroke:none"
         d="m 2127.38,1891.48 h 51.1328 v 74.6484 H 2127.38 Z" /><path
         id="path518"
         style="fill:#006b89;fill-opacity:1;fill-rule:evenodd;stroke:none"
         d="m 2047.03,1891.48 h 51.1289 v 74.6484 H 2047.03 Z" /><path
         id="path520"
         style="fill:#006b89;fill-opacity:1;fill-rule:evenodd;stroke:none"
         d="m 1962.58,1891.48 h 51.1719 v 74.6484 H 1962.58 Z" /><path
         id="path522"
         style="fill:#006b89;fill-opacity:1;fill-rule:evenodd;stroke:none"
         d="m 1883.05,1891.48 h 51.1289 v 74.6484 H 1883.05 Z" /><path
         id="path524"
         style="fill:#006b89;fill-opacity:1;fill-rule:evenodd;stroke:none"
         d="m 1800.23,1891.48 h 51.1289 v 74.6484 H 1800.23 Z" /><path
         id="path526"
         style="fill:#006b89;fill-opacity:1;fill-rule:evenodd;stroke:none"
         d="m 1717.81,1891.48 h 51.1328 v 74.6484 H 1717.81 Z" /><path
         id="path528"
         style="fill:#006b89;fill-opacity:1;fill-rule:evenodd;stroke:none"
         d="m 1637.46,1891.48 h 51.1289 v 74.6484 H 1637.46 Z" /><path
         id="path530"
         style="fill:#006b89;fill-opacity:1;fill-rule:evenodd;stroke:none"
         d="m 1553.05,1891.48 h 51.1289 v 74.6484 H 1553.05 Z" /><path
         id="path532"
         style="fill:#006b89;fill-opacity:1;fill-rule:evenodd;stroke:none"
         d="m 2127.38,1788.01 h 51.1328 v 74.4492 H 2127.38 Z" /><path
         id="path534"
         style="fill:#006b89;fill-opacity:1;fill-rule:evenodd;stroke:none"
         d="m 2047.03,1788.01 h 51.1289 v 74.4492 H 2047.03 Z" /><path
         id="path536"
         style="fill:#006b89;fill-opacity:1;fill-rule:evenodd;stroke:none"
         d="m 1962.58,1788.01 h 51.1719 v 74.4492 H 1962.58 Z" /><path
         id="path538"
         style="fill:#006b89;fill-opacity:1;fill-rule:evenodd;stroke:none"
         d="m 1883.05,1788.01 h 51.1289 v 74.4492 H 1883.05 Z" /><path
         id="path540"
         style="fill:#006b89;fill-opacity:1;fill-rule:evenodd;stroke:none"
         d="m 1800.23,1788.01 h 51.1289 v 74.4492 H 1800.23 Z" /><path
         id="path542"
         style="fill:#006b89;fill-opacity:1;fill-rule:evenodd;stroke:none"
         d="m 1717.81,1788.01 h 51.1328 v 74.4492 H 1717.81 Z" /><path
         id="path544"
         style="fill:#006b89;fill-opacity:1;fill-rule:evenodd;stroke:none"
         d="m 1637.46,1788.01 h 51.1289 v 74.4492 H 1637.46 Z" /><path
         id="path546"
         style="fill:#006b89;fill-opacity:1;fill-rule:evenodd;stroke:none"
         d="m 1553.05,1788.01 h 51.1289 v 74.4492 H 1553.05 Z" /><path
         id="path548"
         style="fill:#006b89;fill-opacity:1;fill-rule:evenodd;stroke:none"
         d="m 2127.38,1683.48 h 51.1328 v 73.6289 H 2127.38 Z" /><path
         id="path550"
         style="fill:#006b89;fill-opacity:1;fill-rule:evenodd;stroke:none"
         d="m 2047.03,1683.48 h 51.1289 v 73.6289 H 2047.03 Z" /><path
         id="path552"
         style="fill:#006b89;fill-opacity:1;fill-rule:evenodd;stroke:none"
         d="m 1962.58,1683.48 h 51.1719 v 73.6289 H 1962.58 Z" /><path
         id="path554"
         style="fill:#006b89;fill-opacity:1;fill-rule:evenodd;stroke:none"
         d="m 1883.05,1683.48 h 51.1289 v 73.6289 H 1883.05 Z" /><path
         id="path556"
         style="fill:#006b89;fill-opacity:1;fill-rule:evenodd;stroke:none"
         d="m 1800.23,1683.48 h 51.1289 v 73.6289 H 1800.23 Z" /><path
         id="path558"
         style="fill:#006b89;fill-opacity:1;fill-rule:evenodd;stroke:none"
         d="m 1717.81,1683.48 h 51.1328 v 73.6289 H 1717.81 Z" /><path
         id="path560"
         style="fill:#006b89;fill-opacity:1;fill-rule:evenodd;stroke:none"
         d="m 1637.46,1683.48 h 51.1289 v 73.6289 H 1637.46 Z" /><path
         id="path562"
         style="fill:#006b89;fill-opacity:1;fill-rule:evenodd;stroke:none"
         d="m 1553.05,1683.48 h 51.1289 v 73.6289 H 1553.05 Z" /></g></g></svg>